<?xml version="1.0" encoding="utf-8"?>
<!-- Generator: Adobe Illustrator 25.2.1, SVG Export Plug-In . SVG Version: 6.00 Build 0)  -->
<svg version="1.1" id="Capa_1" xmlns="http://www.w3.org/2000/svg" xmlns:xlink="http://www.w3.org/1999/xlink" x="0px" y="0px"
	 viewBox="0 0 96.64 94.08" style="enable-background:new 0 0 96.64 94.08;" xml:space="preserve">
<style type="text/css">
	.st0{fill:#FFDD33;}
	.st1{fill:#D31E2F;}
</style>
<g>
	<path class="st0" d="M74.29,68H5.9c-1.98,0-3.47-0.96-2.9-2.92l3.95-12.59l73.18,1c1.6,0,0.76,2.62,1.09,4.67l-1.94,6.93
		C78.59,67.48,77.16,68,74.29,68z"/>
	<path class="st1" d="M81.85,58.15H12.79c-5.84,0-6.48-2.4-5.8-5.37l6.28-21.33c1.09-4.05,2.94-5.37,6.53-5.37h67.27
		c3.59,0,7.54,0.96,6.53,5.37l-5.28,21.13c-0.19,0.74-0.57,2-0.92,3.13c-0.45,1.45-1.79,2.43-3.3,2.43H81.85z"/>
</g>
</svg>
