<?xml version="1.0" encoding="utf-8"?>
<!-- Generator: Adobe Illustrator 25.2.1, SVG Export Plug-In . SVG Version: 6.00 Build 0)  -->
<svg version="1.1" id="Capa_1" xmlns="http://www.w3.org/2000/svg" xmlns:xlink="http://www.w3.org/1999/xlink" x="0px" y="0px"
	 viewBox="0 0 96.64 94.08" style="enable-background:new 0 0 96.64 94.08;" xml:space="preserve">
<style type="text/css">
	.st0{fill:#FFDD33;}
</style>
<path class="st0" d="M63.22,32.81c0.57,0.57,0.89,1.35,0.89,2.15c0,0.8-0.32,1.59-0.89,2.15c-0.57,0.56-1.35,0.89-2.15,0.89
	c-0.8,0-1.59-0.33-2.15-0.89c-0.57-0.57-0.89-1.35-0.89-2.15c0-0.8,0.33-1.59,0.89-2.15c0.56-0.57,1.35-0.89,2.15-0.89
	C61.87,31.92,62.65,32.24,63.22,32.81z M60.56,47.5c0,6.65-5.41,12.06-12.06,12.06c-6.65,0-12.06-5.41-12.06-12.06
	c0-6.65,5.41-12.06,12.06-12.06C55.15,35.44,60.56,40.85,60.56,47.5z M56.41,47.5c0-4.36-3.55-7.91-7.91-7.91
	c-4.36,0-7.91,3.55-7.91,7.91c0,4.36,3.55,7.91,7.91,7.91C52.86,55.41,56.41,51.86,56.41,47.5z M71.9,37.02v20.97
	c0,7.12-5.79,12.91-12.91,12.91H38.02c-7.12,0-12.92-5.79-12.92-12.91V37.02c0-7.12,5.79-12.91,12.92-12.91h20.97
	C66.11,24.1,71.9,29.89,71.9,37.02z M67.75,37.02c0-4.83-3.93-8.76-8.76-8.76H38.02c-4.83,0-8.76,3.93-8.76,8.76v20.97
	c0,4.83,3.93,8.76,8.76,8.76h20.97c4.83,0,8.76-3.93,8.76-8.76V37.02z M48.5,3.23C24.05,3.23,4.23,23.05,4.23,47.5
	c0,24.45,19.82,44.27,44.27,44.27S92.77,71.95,92.77,47.5C92.77,23.05,72.95,3.23,48.5,3.23z"/>
</svg>
