<?xml version="1.0" encoding="utf-8"?>
<!-- Generator: Adobe Illustrator 25.2.1, SVG Export Plug-In . SVG Version: 6.00 Build 0)  -->
<svg version="1.1" id="Capa_1" xmlns="http://www.w3.org/2000/svg" xmlns:xlink="http://www.w3.org/1999/xlink" x="0px" y="0px"
	 viewBox="0 0 274.22 266.96" style="enable-background:new 0 0 274.22 266.96;" xml:space="preserve">
<style type="text/css">
	.st0{enable-background:new    ;}
	.st1{fill:url(#SVGID_1_);}
	.st2{fill:url(#SVGID_2_);}
	.st3{fill:url(#SVGID_3_);}
	.st4{opacity:0.7;fill:url(#SVGID_4_);}
	.st5{fill:url(#SVGID_5_);}
</style>
<g class="st0">
	
		<linearGradient id="SVGID_1_" gradientUnits="userSpaceOnUse" x1="-292.0974" y1="108.8602" x2="-220.7011" y2="206.2952" gradientTransform="matrix(0.9954 0.0958 -0.0958 0.9954 424.7786 71.8682)">
		<stop  offset="0" style="stop-color:#ED1D77"/>
		<stop  offset="0.0145" style="stop-color:#E91D78"/>
		<stop  offset="0.2263" style="stop-color:#B72089"/>
		<stop  offset="0.3304" style="stop-color:#A3218F"/>
		<stop  offset="0.4371" style="stop-color:#810D7A"/>
		<stop  offset="0.4964" style="stop-color:#761277"/>
		<stop  offset="0.5704" style="stop-color:#611A71"/>
		<stop  offset="0.6629" style="stop-color:#5C1E76"/>
		<stop  offset="0.7749" style="stop-color:#4F2A85"/>
		<stop  offset="0.8966" style="stop-color:#3A3E9D"/>
		<stop  offset="1" style="stop-color:#2254B8"/>
	</linearGradient>
	<polygon class="st1" points="168.19,227.75 137.8,238.52 185.4,255.68 215.79,244.91 	"/>
	
		<linearGradient id="SVGID_2_" gradientUnits="userSpaceOnUse" x1="-346.0525" y1="-38.6163" x2="-298.472" y2="246.8667" gradientTransform="matrix(0.9954 0.0958 -0.0958 0.9954 424.7786 71.8682)">
		<stop  offset="0" style="stop-color:#ED1D77"/>
		<stop  offset="0.0145" style="stop-color:#E91D78"/>
		<stop  offset="0.2263" style="stop-color:#B72089"/>
		<stop  offset="0.3304" style="stop-color:#A3218F"/>
		<stop  offset="0.4371" style="stop-color:#810D7A"/>
		<stop  offset="0.5435" style="stop-color:#761277"/>
		<stop  offset="0.6766" style="stop-color:#611A71"/>
		<stop  offset="0.7236" style="stop-color:#5C1E76"/>
		<stop  offset="0.7806" style="stop-color:#4F2A85"/>
		<stop  offset="0.8425" style="stop-color:#3A3E9D"/>
		<stop  offset="0.8951" style="stop-color:#2254B8"/>
		<stop  offset="0.9047" style="stop-color:#2D51B4"/>
		<stop  offset="0.9218" style="stop-color:#4C49AB"/>
		<stop  offset="0.9445" style="stop-color:#7E3B9B"/>
		<stop  offset="0.9715" style="stop-color:#C22985"/>
		<stop  offset="0.9875" style="stop-color:#ED1D77"/>
	</linearGradient>
	<path class="st2" d="M42.65,109.99c0.14-0.84,0.31-1.68,0.51-2.5c0.11-0.46,0.22-0.92,0.35-1.37c0.23-0.84,0.5-1.66,0.79-2.47
		c0.14-0.38,0.26-0.78,0.41-1.15c0.44-1.11,0.92-2.19,1.46-3.22c0.03-0.05,0.05-0.11,0.08-0.16c0.3-0.56,0.64-1.09,0.97-1.62
		c0.24-0.39,0.45-0.8,0.71-1.18c0.36-0.53,0.76-1.01,1.15-1.51c0.27-0.35,0.52-0.72,0.8-1.06c0.5-0.58,1.04-1.11,1.59-1.65
		c0.22-0.21,0.41-0.45,0.63-0.66c0.78-0.72,1.61-1.4,2.49-2.02l105.58-75.32c1.89-1.35,3.89-2.38,5.95-3.11l-30.39,10.77
		c-2.07,0.73-4.07,1.77-5.95,3.11L24.18,100.18c-0.87,0.62-1.7,1.3-2.49,2.02c-0.27,0.25-0.51,0.54-0.77,0.8
		c-0.49,0.49-1,0.98-1.45,1.51c-0.29,0.33-0.53,0.71-0.8,1.06c-0.39,0.5-0.79,0.98-1.15,1.51c-0.26,0.39-0.48,0.81-0.73,1.21
		c-0.32,0.53-0.66,1.04-0.95,1.59c0,0.01-0.01,0.01-0.01,0.02c-0.03,0.05-0.04,0.1-0.07,0.15c-0.54,1.03-1.02,2.11-1.45,3.21
		c-0.15,0.38-0.27,0.77-0.41,1.16c-0.29,0.81-0.56,1.63-0.79,2.47c-0.13,0.45-0.24,0.91-0.35,1.37c-0.2,0.82-0.36,1.66-0.51,2.5
		c-0.08,0.46-0.16,0.92-0.23,1.39c-0.13,0.94-0.21,1.89-0.28,2.86c-0.02,0.3-0.07,0.59-0.09,0.89c0,0.1,0,0.2,0,0.29
		c-0.02,0.42-0.01,0.84-0.02,1.26c-0.01,0.74-0.02,1.47,0.01,2.21c0.02,0.47,0.05,0.94,0.08,1.41c0.05,0.7,0.1,1.4,0.18,2.11
		c0.05,0.49,0.12,0.99,0.19,1.48c0.1,0.69,0.21,1.38,0.34,2.08c0.09,0.5,0.19,1,0.3,1.5c0.15,0.7,0.32,1.39,0.51,2.09
		c0.13,0.49,0.26,0.98,0.4,1.47c0.21,0.72,0.45,1.43,0.7,2.15c0.16,0.46,0.31,0.92,0.48,1.37c0.29,0.78,0.62,1.55,0.96,2.32
		c0.17,0.38,0.32,0.77,0.5,1.15c0.53,1.14,1.1,2.28,1.73,3.39l49.75,88.64c5.13,9.13,12.46,15.52,20.25,18.53
		c2.6,1,5.24,1.63,7.87,1.86c0.88,0.08,1.75,0.11,2.62,0.09c0.87-0.01,1.74-0.07,2.6-0.18c1.72-0.21,3.42-0.6,5.07-1.19l30.39-10.77
		c-13.2,4.68-29.29-2.89-38.41-19.13L48.4,141.41c-0.63-1.12-1.2-2.25-1.73-3.39c-0.18-0.38-0.33-0.77-0.5-1.15
		c-0.34-0.77-0.67-1.54-0.96-2.32c-0.17-0.46-0.32-0.92-0.48-1.37c-0.25-0.71-0.49-1.43-0.7-2.15c-0.14-0.49-0.27-0.98-0.4-1.47
		c-0.18-0.7-0.35-1.39-0.51-2.09c-0.11-0.5-0.21-1-0.3-1.5c-0.13-0.69-0.24-1.39-0.34-2.08c-0.07-0.5-0.14-0.99-0.19-1.48
		c-0.08-0.71-0.13-1.41-0.18-2.11c-0.03-0.47-0.07-0.94-0.08-1.41c-0.03-0.74-0.02-1.48-0.01-2.21c0.01-0.42,0-0.84,0.02-1.26
		c0.02-0.4,0.06-0.79,0.09-1.18c0.07-0.96,0.15-1.92,0.28-2.86C42.49,110.91,42.57,110.45,42.65,109.99z"/>
	
		<radialGradient id="SVGID_3_" cx="-239.3269" cy="298.5779" r="343.6822" gradientTransform="matrix(0.9954 0.0958 -0.0958 0.9954 424.7786 71.8682)" gradientUnits="userSpaceOnUse">
		<stop  offset="0.2804" style="stop-color:#008CFF"/>
		<stop  offset="0.5203" style="stop-color:#9435FF"/>
		<stop  offset="0.7036" style="stop-color:#D124DC"/>
		<stop  offset="0.7519" style="stop-color:#D629D1"/>
		<stop  offset="0.8378" style="stop-color:#E235B2"/>
		<stop  offset="0.9507" style="stop-color:#F64981"/>
		<stop  offset="0.9964" style="stop-color:#FF526B"/>
	</radialGradient>
	<path class="st3" d="M254.24,118.7l-49.75-88.64c-10.54-18.77-30.39-25.93-44.33-15.99L54.57,89.4
		c-13.94,9.95-16.7,33.24-6.17,52.01l49.75,88.64c10.54,18.77,30.41,25.96,44.35,16.02l25.68-18.32l47.6,17.17l6.62-55.85
		l25.68-18.32C262.03,160.8,264.78,137.48,254.24,118.7z"/>
	
		<linearGradient id="SVGID_4_" gradientUnits="userSpaceOnUse" x1="382.3614" y1="86.9726" x2="292.1674" y2="375.3958" gradientTransform="matrix(0.9988 -0.0499 0.0499 0.9988 -199.3686 -75.1223)">
		<stop  offset="0.0757" style="stop-color:#FFFFFF"/>
		<stop  offset="1" style="stop-color:#FFFFFF;stop-opacity:0"/>
	</linearGradient>
	<path class="st4" d="M254.24,118.7l-49.75-88.64c-10.54-18.77-30.39-25.93-44.33-15.99L54.57,89.4
		c-13.94,9.95-16.7,33.24-6.17,52.01l49.75,88.64c10.54,18.77,30.41,25.96,44.35,16.02l25.68-18.32l47.6,17.17l6.62-55.85
		l25.68-18.32C262.03,160.8,264.78,137.48,254.24,118.7z M247.41,169.78l-26.11,18.62l-6.51,54.89l-46.79-16.88l-26.18,18.68
		c-4.57,3.26-9.99,4.69-15.68,4.14c-10.5-1.01-20.58-8.4-26.96-19.77l-49.75-88.63c-10.24-18.24-7.62-40.88,5.82-50.47l105.58-75.32
		c4.57-3.26,10-4.7,15.69-4.15c10.49,1.01,20.55,8.39,26.93,19.75l49.75,88.63C263.46,137.54,260.85,160.19,247.41,169.78z"/>
	
		<linearGradient id="SVGID_5_" gradientUnits="userSpaceOnUse" x1="-221.1624" y1="26.1882" x2="-310.3255" y2="147.3943" gradientTransform="matrix(0.9954 0.0958 -0.0958 0.9954 424.7786 71.8682)">
		<stop  offset="0" style="stop-color:#F2F9FF"/>
		<stop  offset="0.7955" style="stop-color:#C0D6F2"/>
		<stop  offset="0.999" style="stop-color:#B3CDEC"/>
	</linearGradient>
	<path class="st5" d="M181.05,96.29c-7.74-13.79-22.29-19.04-32.51-11.75c-7.02,5.01-10.15,14.61-8.98,24.56
		c-7.48-5.45-16.52-6.37-23.53-1.37c-10.22,7.29-12.24,24.36-4.5,38.15c8.25,14.71,22.21,19.74,33.44,22.47
		c7.7,1.87,14.55,2.64,15.31,2.74l14.97,1.57l5.15-15.92c0.24-0.81,2.56-8.12,4.36-16.77C187.36,127.36,189.3,110.99,181.05,96.29z"
		/>
</g>
</svg>
