<?xml version="1.0" encoding="utf-8"?>
<!-- Generator: Adobe Illustrator 25.2.1, SVG Export Plug-In . SVG Version: 6.00 Build 0)  -->
<svg version="1.1" id="Capa_1" xmlns="http://www.w3.org/2000/svg" xmlns:xlink="http://www.w3.org/1999/xlink" x="0px" y="0px"
	 viewBox="0 0 474.64 228.08" style="enable-background:new 0 0 474.64 228.08;" xml:space="preserve">
<style type="text/css">
	.st0{fill:#FFDD33;}
	.st1{fill:#D31E2F;}
	.st2{fill:#FFFFFF;}
</style>
<g>
	<path class="st0" d="M368.03,219.53H23.85c-9.94,0-17.44-4.83-14.62-14.69l19.89-63.38l368.27,5.01c8.04,0,3.83,13.2,5.48,23.49
		l-9.73,34.88C389.67,216.89,382.46,219.53,368.03,219.53z"/>
	<path class="st1" d="M406.04,169.96H58.54c-29.37,0-32.61-12.09-29.22-27.04L60.94,35.59C66.42,15.2,75.72,8.54,93.81,8.54h338.52
		c18.08,0,37.94,4.85,32.87,27.04l-26.56,106.35c-0.98,3.71-2.89,10.05-4.65,15.76c-2.25,7.28-8.98,12.26-16.61,12.26H406.04z"/>
	<g>
		<g>
			<path class="st1" d="M44.79,191.97c0.2-2.43-1-3.83-3.21-3.83c-2.49,0-4.35,2.3-5.09,6.84c-0.53,3.28-0.37,6.38,3.24,6.38
				c2.29,0,3.63-1.73,4.26-3.96h6.8c-1.62,6.05-6.18,9.7-11.87,9.7c-7.13,0-10.69-4.76-9.44-12.37c1.24-7.58,6.71-12.3,12.74-12.3
				c6.6,0,9.72,3.54,9.29,9.57h-6.73V191.97z"/>
			<path class="st1" d="M69.44,198.29l-1.33,8.17h-7.08l3.82-23.43h10.19c7.19,0,9.2,2.12,8.48,6.67c-0.44,2.71-1.92,4.98-4.55,5.73
				c2.12,0.9,3.41,1.49,2.64,6.21c-0.48,3.06-0.76,4.09,0.09,4.09l-0.13,0.72H74.4c-0.09-0.52-0.04-2.01,0.29-4.09
				c0.52-3.06,0.18-4.07-3.12-4.07L69.44,198.29L69.44,198.29z M70.27,193.15h2.78c2.19,0,3.45-0.59,3.72-2.21
				c0.28-1.66-0.81-2.43-2.45-2.43h-3.3L70.27,193.15z"/>
			<path class="st1" d="M93.81,206.46l3.82-23.43h17.59l-0.9,5.48h-10.53l-0.53,3.36h8.9l-0.87,5.48h-8.9l-0.61,3.67h10.95
				l-0.9,5.48H93.81V206.46z"/>
			<path class="st1" d="M122.49,206.46l11.54-23.43h7.19l3.93,23.43h-7.04l-0.33-3.1h-7.04l-1.33,3.1H122.49z M136.43,190.09
				l-3.56,8.39h4.46L136.43,190.09z"/>
			<path class="st1" d="M156.45,183.03h19.78l-1,6.16h-6.36l-2.82,17.27h-7.08l2.82-17.27h-6.36L156.45,183.03z"/>
			<path class="st1" d="M184.62,206.46l3.82-23.43h7.08l-3.82,23.43H184.62z"/>
			<path class="st1" d="M207.46,183.03h7.13l1.24,15.6l6.47-15.6h7.13l-11.3,23.43h-7.1L207.46,183.03z"/>
			<path class="st1" d="M237.6,206.46l3.82-23.43H259l-0.9,5.48h-10.53l-0.53,3.36h8.9l-0.87,5.48h-8.9l-0.61,3.67h10.95l-0.9,5.48
				H237.6V206.46z"/>
			<path class="st1" d="M287.21,206.46l3.82-23.43h7.08l-2.91,17.96h9.72l-0.9,5.48H287.21z"/>
			<path class="st1" d="M314.23,206.46l11.54-23.43h7.19l3.93,23.43h-7.04l-0.33-3.1h-7.04l-1.33,3.1H314.23z M328.17,190.09
				l-3.58,8.39h4.46L328.17,190.09z"/>
			<path class="st1" d="M348.37,206.46l3.82-23.43h10.31c4.85,0,8.52,1.24,7.76,5.9c-0.39,2.41-2.12,4.17-3.65,5.11
				c2.25,0.65,3.15,2.84,2.73,5.36c-0.85,5.24-4.83,7.06-10.43,7.06H348.37z M357.04,196.65l-0.68,4.33h3.08
				c1.73,0,3.12-0.39,3.39-2.14c0.33-2.05-1.29-2.18-3.54-2.18h-2.25V196.65z M358.37,188.48l-0.63,3.91h2.93
				c1.4,0,2.54-0.68,2.77-2.05c0.29-1.83-1.09-1.86-2.58-1.86H358.37z"/>
		</g>
	</g>
	<g>
		<path class="st2" d="M162.26,137.68c-1.9,6.45-5.35,11.61-10.36,15.49c-5.01,3.89-10.67,5.83-16.98,5.83H58.38
			c-6.45,0-11.08-1.94-13.9-5.83c-2.82-3.87-3.28-9.03-1.38-15.49l26.27-93.52c1.9-6.43,5.35-11.61,10.36-15.49
			s10.67-5.83,16.98-5.83h76.54c6.43,0,11.08,1.94,13.9,5.83c2.82,3.89,3.28,9.05,1.38,15.49L162.26,137.68z M114.18,46.35
			l-24.19,85.68c-1.46,5.14,2.12,9.97,7.37,9.97h11.54c3.89,0,7.45-2.73,8.54-6.54l24.19-85.68c1.46-5.14-2.12-9.97-7.37-9.97
			h-11.54C118.83,39.83,115.27,42.55,114.18,46.35z"/>
		<path class="st2" d="M447.09,39.83h-21.38c-3.65,0-6.99,2.56-8,6.14l-30.12,106.9c-1.01,3.58-4.35,6.14-8,6.14h-29.57
			c-4.92,0-8.28-4.53-6.91-9.35l28.32-100.49c1.36-4.81-1.99-9.35-6.91-9.35h-14.86c-4.9,0-8.26-4.52-6.91-9.33l0.42-1.49
			c1-3.58,4.33-6.16,8-6.16h97.43c4.9,0,8.26,4.52,6.91,9.33l-0.42,1.49C454.1,37.24,450.76,39.83,447.09,39.83z"/>
		<path class="st2" d="M298.38,137.68c-1.9,6.45-5.35,11.61-10.36,15.49c-5.01,3.89-10.67,5.83-16.98,5.83H194.5
			c-6.45,0-11.08-1.94-13.9-5.83c-2.82-3.87-3.28-9.03-1.38-15.49l30.25-107.57c1.18-4.22,5.12-7.24,9.46-7.24h26.69
			c5.81,0,9.77,5.35,8.17,11.04L226.43,131c-1.6,5.68,2.36,11.04,8.17,11.04h9.73c4.31,0,8.26-3.02,9.44-7.24l29.5-104.67
			c1.2-4.22,5.12-7.24,9.44-7.24h26.69c5.81,0,9.77,5.35,8.17,11.02L298.38,137.68z"/>
	</g>
</g>
</svg>
