<?xml version="1.0" encoding="utf-8"?>
<!-- Generator: Adobe Illustrator 25.2.1, SVG Export Plug-In . SVG Version: 6.00 Build 0)  -->
<svg version="1.1" id="Capa_1" xmlns="http://www.w3.org/2000/svg" xmlns:xlink="http://www.w3.org/1999/xlink" x="0px" y="0px"
	 viewBox="0 0 96.64 94.08" style="enable-background:new 0 0 96.64 94.08;" xml:space="preserve">
<style type="text/css">
	.st0{fill:#FFDD33;}
</style>
<path class="st0" d="M26.06,56.9c0,5.75,2.3,16.57,16.5,16.57c14.2,0,16.19-13.04,16.19-13.04V39.4c4.37,3.91,12.2,3.9,12.2,3.9
	v-9.66C57.9,33.96,58.59,21.53,58.59,21.53h-9.28c0,0,0,28.54,0,36.14s-14.2,8.96-14.2,0.38c0-9.21,9.44-8.44,9.44-8.44v-8.98
	C29.89,40.63,26.06,51.14,26.06,56.9z M92.5,47.5c0,24.3-19.7,44-44,44s-44-19.7-44-44c0-24.3,19.7-44,44-44S92.5,23.2,92.5,47.5z"
	/>
</svg>
