<?xml version="1.0" encoding="utf-8"?>
<!-- Generator: Adobe Illustrator 25.2.1, SVG Export Plug-In . SVG Version: 6.00 Build 0)  -->
<svg version="1.1" id="Capa_1" xmlns="http://www.w3.org/2000/svg" xmlns:xlink="http://www.w3.org/1999/xlink" x="0px" y="0px"
	 viewBox="0 0 274.22 239.76" style="enable-background:new 0 0 274.22 239.76;" xml:space="preserve">
<style type="text/css">
	.st0{enable-background:new    ;}
	.st1{fill:url(#SVGID_1_);}
	.st2{opacity:0.7;fill:url(#SVGID_2_);}
	.st3{fill:url(#SVGID_3_);}
	.st4{fill:url(#SVGID_4_);}
</style>
<g>
	<g>
	</g>
	<g class="st0">
		
			<radialGradient id="SVGID_1_" cx="-1436.8879" cy="73.2053" r="188.0395" gradientTransform="matrix(0.7971 0.6039 -0.6039 0.7971 1347.5663 990.557)" gradientUnits="userSpaceOnUse">
			<stop  offset="0" style="stop-color:#DA334F"/>
			<stop  offset="0.6759" style="stop-color:#FF597D"/>
			<stop  offset="0.9892" style="stop-color:#FFA19A"/>
		</radialGradient>
		<path class="st1" d="M214.2,19.46c48.43,24.45,48.71,80.89,0.6,126.08c-48.11,45.18-126.36,61.97-174.79,37.52
			c-48.4-24.44-48.68-80.88-0.57-126.07C87.55,11.8,165.8-4.98,214.2,19.46z"/>
		
			<linearGradient id="SVGID_2_" gradientUnits="userSpaceOnUse" x1="-328.6822" y1="-70.1326" x2="-190.149" y2="96.1071" gradientTransform="matrix(0.996 0.0891 -0.0891 0.996 380.2633 102.2144)">
			<stop  offset="0.0757" style="stop-color:#FFFFFF"/>
			<stop  offset="1" style="stop-color:#FFFFFF;stop-opacity:0"/>
		</linearGradient>
		<path class="st2" d="M214.2,19.46C165.8-4.98,87.55,11.8,39.44,56.99s-47.83,101.63,0.57,126.07
			c48.43,24.45,126.68,7.67,174.79-37.52C262.91,100.35,262.63,43.91,214.2,19.46z M213.95,144.64
			c-47.67,44.78-125.45,61.52-173.38,37.32c-4.32-2.18-8.34-4.67-11.95-7.41C14,163.47,5.78,148.34,4.85,130.8
			c-1.27-24,11.65-50.58,35.43-72.92C87.96,13.11,165.73-3.63,213.64,20.56c4.33,2.19,8.35,4.68,11.96,7.41
			c14.63,11.08,22.85,26.21,23.78,43.76C250.65,95.72,237.74,122.3,213.95,144.64z"/>
		<linearGradient id="SVGID_3_" gradientUnits="userSpaceOnUse" x1="134.6275" y1="29.8209" x2="84.9363" y2="216.7541">
			<stop  offset="0" style="stop-color:#F2F9FF"/>
			<stop  offset="0.7955" style="stop-color:#C0D6F2"/>
			<stop  offset="0.999" style="stop-color:#B3CDEC"/>
		</linearGradient>
		<path class="st3" d="M94.58,140.46l-14.73-7.44c-4.04,3.8-4.02,8.54,0.04,10.59C83.96,145.67,90.53,144.26,94.58,140.46
			 M174.46,54.8c-4.07-2.05-10.64-0.64-14.68,3.16l-1.34,1.26c-18.4-4.45-43.05,2.39-59,17.37l-28.51,26.78l-1.37-0.69
			c-4.07-2.05-10.64-0.64-14.68,3.16c-4.04,3.8-4.02,8.54,0.04,10.59l70.15,35.42c4.07,2.05,10.64,0.64,14.68-3.15
			c4.04-3.79,4.02-8.54-0.05-10.59l-1.37-0.69l28.51-26.78c15.95-14.98,18.01-33.22,6.32-43.97l1.34-1.26
			C178.55,61.6,178.53,56.85,174.46,54.8"/>
		
			<linearGradient id="SVGID_4_" gradientUnits="userSpaceOnUse" x1="-1534.165" y1="175.562" x2="-1381.8475" y2="-56.6424" gradientTransform="matrix(0.7971 0.6039 -0.6039 0.7971 1347.5663 990.557)">
			<stop  offset="5.537000e-05" style="stop-color:#DF3855"/>
			<stop  offset="0.0889" style="stop-color:#951853"/>
			<stop  offset="0.2089" style="stop-color:#821052"/>
			<stop  offset="0.2931" style="stop-color:#7A0D52"/>
			<stop  offset="0.557" style="stop-color:#610D52"/>
			<stop  offset="0.6089" style="stop-color:#690E54"/>
			<stop  offset="0.6916" style="stop-color:#81125A"/>
			<stop  offset="0.7941" style="stop-color:#A61863"/>
			<stop  offset="0.8466" style="stop-color:#BC1C69"/>
			<stop  offset="0.8941" style="stop-color:#C12066"/>
			<stop  offset="0.9516" style="stop-color:#D02C5E"/>
			<stop  offset="0.9926" style="stop-color:#DF3855"/>
		</linearGradient>
		<path class="st4" d="M245.97,166.46c1.74-2.28,3.37-4.58,4.89-6.89c0.1-0.15,0.22-0.3,0.32-0.45c0.25-0.38,0.43-0.75,0.67-1.13
			c1.34-2.1,2.58-4.21,3.73-6.33c0.21-0.39,0.48-0.78,0.69-1.17c0.19-0.36,0.33-0.71,0.51-1.07c0.7-1.36,1.34-2.73,1.96-4.09
			c0.27-0.58,0.59-1.17,0.84-1.75c0.11-0.25,0.19-0.5,0.29-0.75c0.43-1.02,0.8-2.03,1.19-3.05c0.29-0.75,0.62-1.51,0.88-2.26
			c0.09-0.26,0.15-0.52,0.24-0.78c0.28-0.82,0.51-1.64,0.76-2.45c0.23-0.77,0.51-1.55,0.72-2.32c0.1-0.36,0.16-0.71,0.25-1.06
			c0.19-0.75,0.36-1.49,0.53-2.23c0.14-0.64,0.32-1.28,0.45-1.91c0.11-0.53,0.17-1.06,0.26-1.59c0.12-0.66,0.23-1.33,0.33-1.99
			c0.06-0.43,0.16-0.86,0.21-1.28c0.11-0.84,0.16-1.66,0.24-2.5c0.05-0.54,0.12-1.08,0.16-1.62c0.01-0.2,0.04-0.39,0.06-0.59
			c0.09-1.53,0.13-3.05,0.12-4.57c0-0.04,0-0.07,0-0.11c0-0.19-0.02-0.37-0.02-0.56c-0.02-1.26-0.06-2.52-0.16-3.77
			c-0.02-0.28-0.07-0.55-0.1-0.83c-0.05-0.54-0.12-1.08-0.19-1.62c-0.08-0.64-0.12-1.29-0.22-1.92c-0.08-0.55-0.21-1.08-0.31-1.63
			c-0.1-0.55-0.2-1.1-0.31-1.65c-0.07-0.34-0.12-0.68-0.19-1.02c-0.21-0.9-0.47-1.79-0.72-2.68c-0.12-0.43-0.22-0.86-0.34-1.28
			c-0.04-0.12-0.06-0.24-0.1-0.35c-0.45-1.46-0.97-2.9-1.54-4.32c-0.04-0.1-0.08-0.19-0.12-0.29L246.38,52.5
			c0.66,1.62,1.24,3.28,1.75,4.95c0.13,0.43,0.23,0.86,0.35,1.29c0.34,1.22,0.65,2.44,0.91,3.68c0.12,0.55,0.21,1.11,0.31,1.66
			c0.21,1.17,0.39,2.35,0.53,3.54c0.06,0.54,0.14,1.08,0.19,1.62c0.14,1.52,0.23,3.04,0.26,4.58c0,0.19,0.02,0.38,0.02,0.57
			c0.02,1.74-0.05,3.49-0.17,5.26c-0.04,0.54-0.11,1.09-0.16,1.63c-0.12,1.25-0.26,2.51-0.45,3.77c-0.1,0.66-0.21,1.32-0.33,1.99
			c-0.21,1.16-0.45,2.33-0.71,3.5c-0.17,0.74-0.33,1.49-0.53,2.23c-0.29,1.12-0.62,2.25-0.97,3.37c-0.25,0.82-0.49,1.64-0.76,2.46
			c-0.34,1.01-0.74,2.02-1.12,3.04c-0.39,1.02-0.76,2.04-1.19,3.06c-0.35,0.83-0.75,1.67-1.13,2.5c-0.62,1.37-1.26,2.73-1.96,4.09
			c-0.38,0.75-0.8,1.49-1.2,2.24c-1.15,2.11-2.39,4.22-3.73,6.33c-0.33,0.53-0.64,1.05-0.99,1.58c-1.52,2.31-3.14,4.6-4.89,6.89
			c-0.34,0.44-0.71,0.87-1.06,1.31c-1.45,1.85-2.97,3.69-4.57,5.52c-0.98,1.12-2,2.24-3.04,3.36c-0.53,0.57-1.05,1.14-1.6,1.71
			c-1.71,1.78-3.48,3.54-5.34,5.29c-0.99,0.93-2.02,1.84-3.04,2.75c-2.22,1.98-4.49,3.91-6.82,5.78c-0.32,0.26-0.66,0.5-0.98,0.76
			c-2.21,1.74-4.47,3.43-6.78,5.07c-0.36,0.26-0.71,0.52-1.08,0.78c-2.75,1.92-5.57,3.76-8.43,5.53c-0.5,0.31-0.99,0.62-1.5,0.92
			c-2.31,1.4-4.64,2.75-7.01,4.05c-0.42,0.23-0.84,0.44-1.27,0.67c-1.75,0.94-3.51,1.85-5.29,2.74c-0.74,0.37-1.49,0.73-2.24,1.09
			c-1.36,0.66-2.73,1.3-4.11,1.92c-0.79,0.36-1.58,0.72-2.38,1.07c-1.23,0.54-2.47,1.05-3.7,1.56c-0.82,0.34-1.63,0.68-2.45,1
			c-1.23,0.49-2.47,0.95-3.71,1.41c-0.8,0.3-1.59,0.6-2.39,0.89c-1.26,0.45-2.53,0.87-3.8,1.3c-0.76,0.25-1.51,0.52-2.27,0.76
			c-1.28,0.41-2.57,0.79-3.85,1.17c-0.73,0.22-1.45,0.45-2.18,0.66c-1.6,0.46-3.21,0.88-4.81,1.29c-0.42,0.11-0.83,0.23-1.25,0.33
			c-2.02,0.5-4.04,0.97-6.06,1.4c-0.51,0.11-1.03,0.2-1.54,0.3c-1.53,0.31-3.05,0.62-4.57,0.89c-0.71,0.13-1.42,0.23-2.13,0.35
			c-1.35,0.22-2.7,0.45-4.05,0.64c-0.79,0.11-1.57,0.2-2.36,0.3c-1.29,0.17-2.59,0.33-3.87,0.46c-0.8,0.08-1.59,0.15-2.39,0.22
			c-1.37,0.12-2.74,0.24-4.1,0.33c-0.79,0.05-1.58,0.09-2.37,0.13c-1.53,0.08-3.06,0.13-4.58,0.16c-0.7,0.02-1.4,0.04-2.09,0.04
			c-2.33,0.02-4.66-0.01-6.96-0.09c-0.22-0.01-0.43-0.03-0.65-0.04c-2.43-0.11-4.83-0.29-7.22-0.52c-0.69-0.07-1.38-0.13-2.06-0.2
			c-0.88-0.1-1.76-0.21-2.64-0.33c-0.93-0.12-1.85-0.25-2.77-0.39c-0.87-0.14-1.73-0.28-2.59-0.44c-0.82-0.14-1.63-0.3-2.45-0.46
			c-1.91-0.38-3.8-0.8-5.66-1.27c-0.24-0.06-0.49-0.11-0.73-0.17c-2.08-0.54-4.12-1.15-6.13-1.8c-0.56-0.18-1.11-0.38-1.67-0.57
			c-1.51-0.52-3-1.07-4.47-1.66c-0.57-0.23-1.14-0.45-1.7-0.69c-1.92-0.81-3.82-1.66-5.66-2.59C24.06,175,13.34,163.48,7.85,150.03
			l15.56,38.11c5.49,13.45,16.21,24.97,32.16,33.03c1.84,0.93,3.74,1.78,5.66,2.59c0.56,0.24,1.13,0.46,1.7,0.69
			c1.47,0.59,2.96,1.14,4.47,1.66c0.56,0.19,1.11,0.39,1.67,0.57c2.01,0.65,4.05,1.26,6.13,1.8c0.24,0.06,0.49,0.11,0.73,0.17
			c1.86,0.47,3.75,0.89,5.66,1.27c0.28,0.06,0.55,0.13,0.83,0.18c0.53,0.1,1.08,0.18,1.62,0.27c0.86,0.15,1.72,0.3,2.59,0.44
			c0.92,0.14,1.84,0.27,2.77,0.39c0.88,0.12,1.75,0.23,2.64,0.33c0.35,0.04,0.69,0.09,1.05,0.13c0.33,0.03,0.68,0.04,1.01,0.07
			c2.38,0.23,4.79,0.41,7.22,0.52c0.17,0.01,0.33,0.03,0.49,0.04c0.05,0,0.11,0,0.16,0c2.3,0.09,4.62,0.11,6.95,0.09
			c0.23,0,0.45,0.01,0.67,0.01c0.48-0.01,0.96-0.04,1.44-0.05c1.52-0.03,3.04-0.09,4.57-0.16c0.41-0.02,0.82-0.02,1.23-0.04
			c0.38-0.02,0.76-0.07,1.14-0.09c1.36-0.09,2.73-0.2,4.1-0.33c0.54-0.05,1.07-0.07,1.61-0.13c0.26-0.03,0.52-0.07,0.78-0.09
			c1.29-0.14,2.58-0.3,3.87-0.46c0.62-0.08,1.24-0.14,1.86-0.22c0.17-0.02,0.33-0.05,0.5-0.08c1.35-0.19,2.7-0.42,4.05-0.64
			c0.62-0.1,1.24-0.18,1.86-0.29c0.09-0.02,0.18-0.04,0.27-0.05c1.52-0.27,3.05-0.58,4.57-0.89c0.48-0.1,0.97-0.18,1.45-0.28
			c0.03-0.01,0.06-0.01,0.09-0.02c2.02-0.43,4.05-0.9,6.07-1.4c0.01,0,0.03-0.01,0.04-0.01c0.37-0.09,0.73-0.2,1.1-0.29
			c1.64-0.42,3.28-0.85,4.91-1.32c0.06-0.02,0.11-0.03,0.17-0.05c0.67-0.19,1.33-0.41,1.99-0.61c1.29-0.39,2.59-0.77,3.88-1.18
			c0.1-0.03,0.2-0.06,0.29-0.09c0.65-0.21,1.29-0.45,1.94-0.66c1.28-0.43,2.56-0.85,3.84-1.31c0.16-0.06,0.32-0.11,0.48-0.17
			c0.63-0.23,1.25-0.48,1.88-0.72c1.25-0.46,2.49-0.93,3.73-1.42c0.24-0.1,0.48-0.18,0.73-0.28c0.57-0.23,1.14-0.49,1.71-0.72
			c1.24-0.51,2.48-1.03,3.71-1.56c0.34-0.15,0.68-0.28,1.01-0.43c0.46-0.2,0.91-0.43,1.37-0.64c1.38-0.62,2.75-1.26,4.11-1.92
			c0.44-0.21,0.9-0.41,1.34-0.63c0.3-0.15,0.6-0.31,0.9-0.46c1.78-0.89,3.54-1.8,5.29-2.74c0.34-0.18,0.69-0.35,1.03-0.54
			c0.08-0.04,0.15-0.09,0.23-0.13c2.37-1.3,4.7-2.65,7.01-4.05c0.24-0.14,0.49-0.27,0.72-0.42c0.26-0.16,0.51-0.34,0.77-0.5
			c2.86-1.77,5.68-3.61,8.43-5.53c0.11-0.08,0.23-0.14,0.33-0.22c0.25-0.18,0.49-0.38,0.74-0.56c2.3-1.64,4.56-3.32,6.78-5.07
			c0.33-0.26,0.66-0.5,0.98-0.76c2.33-1.86,4.6-3.8,6.82-5.78c0.23-0.21,0.49-0.4,0.72-0.61c0.78-0.71,1.56-1.42,2.32-2.14
			c1.86-1.75,3.63-3.51,5.34-5.29c0.55-0.57,1.06-1.14,1.6-1.71c0.77-0.82,1.57-1.64,2.31-2.47c0.26-0.29,0.48-0.59,0.73-0.88
			c1.6-1.83,3.12-3.67,4.57-5.52C245.25,167.34,245.63,166.9,245.97,166.46z"/>
	</g>
</g>
</svg>
