<?xml version="1.0" encoding="utf-8"?>
<!-- Generator: Adobe Illustrator 25.2.1, SVG Export Plug-In . SVG Version: 6.00 Build 0)  -->
<svg version="1.1" id="Capa_1" xmlns="http://www.w3.org/2000/svg" xmlns:xlink="http://www.w3.org/1999/xlink" x="0px" y="0px"
	 viewBox="0 0 469.36 583.36" style="enable-background:new 0 0 469.36 583.36;" xml:space="preserve">
<style type="text/css">
	.st0{fill:url(#SVGID_1_);}
	.st1{fill:url(#SVGID_2_);}
	.st2{fill:#688EFE;}
	.st3{fill:url(#SVGID_3_);}
	.st4{fill:url(#SVGID_4_);}
	.st5{fill:url(#SVGID_5_);}
	.st6{fill:url(#SVGID_6_);}
	.st7{fill:url(#SVGID_7_);}
	.st8{fill:url(#SVGID_8_);}
	.st9{fill:#A8A8A8;}
	.st10{fill:url(#SVGID_9_);}
	.st11{fill:url(#SVGID_10_);}
	.st12{fill:url(#SVGID_11_);}
	.st13{fill:url(#SVGID_12_);}
	.st14{fill:url(#SVGID_13_);}
	.st15{fill:url(#SVGID_14_);}
	.st16{fill:url(#SVGID_15_);}
	.st17{fill:url(#SVGID_16_);}
	.st18{enable-background:new    ;}
	.st19{clip-path:url(#SVGID_18_);fill:#868686;}
	.st20{fill:#009028;}
	.st21{fill:url(#SVGID_19_);}
	.st22{fill:#FDFDFD;}
	.st23{fill:url(#SVGID_20_);}
</style>
<g>
	<g>
		<linearGradient id="SVGID_1_" gradientUnits="userSpaceOnUse" x1="122.8643" y1="522.9716" x2="351.0695" y2="33.5841">
			<stop  offset="0" style="stop-color:#BFD4FF"/>
			<stop  offset="1" style="stop-color:#FFFFFF"/>
		</linearGradient>
		<path class="st0" d="M421.31,66.67c2.22,0.48,4.17,1.54,5.81,3.05c1.64,1.51,2.96,3.48,3.9,5.76c0.94,2.28,1.51,4.88,1.65,7.66
			c0.14,2.78-0.16,5.74-0.95,8.75l-119.43,456.9c-0.78,3-1.97,5.72-3.45,8.07c-1.48,2.35-3.24,4.33-5.18,5.84
			c-1.93,1.51-4.04,2.57-6.21,3.07c-2.16,0.5-4.38,0.45-6.54-0.24L47.06,487.53c-1.95-0.63-3.66-1.8-5.08-3.38
			c-1.42-1.58-2.54-3.58-3.33-5.85c-0.79-2.27-1.24-4.82-1.31-7.5c-0.07-2.69,0.24-5.52,0.98-8.36L151.13,30.35
			c0.74-2.84,1.85-5.46,3.22-7.76c1.37-2.3,3.01-4.29,4.8-5.87c1.8-1.58,3.75-2.75,5.75-3.42c2.01-0.67,4.07-0.84,6.07-0.41
			L421.31,66.67z M329.7,391.68l62.11-237.63l-237.2-55.31L95.44,325.37L329.7,391.68 M238.59,464.18c0.65,0.2,1.32,0.2,1.97,0.04
			c0.65-0.16,1.29-0.49,1.87-0.96c0.58-0.47,1.12-1.08,1.56-1.8c0.45-0.72,0.81-1.55,1.05-2.47c0.24-0.92,0.33-1.83,0.3-2.69
			c-0.03-0.86-0.19-1.68-0.46-2.41c-0.27-0.73-0.65-1.37-1.13-1.87s-1.05-0.88-1.7-1.07L80.1,402.35c-0.61-0.18-1.24-0.18-1.85-0.01
			c-0.61,0.17-1.21,0.49-1.76,0.95c-0.55,0.46-1.05,1.05-1.48,1.75c-0.42,0.7-0.77,1.5-1,2.39c-0.23,0.88-0.33,1.76-0.3,2.6
			c0.02,0.83,0.17,1.62,0.41,2.32c0.25,0.7,0.6,1.31,1.05,1.8s0.98,0.84,1.59,1.02L238.59,464.18 M174.47,472.85
			c0.64,0.2,1.29,0.2,1.93,0.04c0.64-0.16,1.26-0.49,1.83-0.95c0.57-0.46,1.09-1.07,1.53-1.78c0.44-0.71,0.79-1.53,1.03-2.44
			c0.24-0.9,0.33-1.81,0.3-2.66c-0.03-0.86-0.18-1.66-0.45-2.38c-0.26-0.72-0.63-1.35-1.1-1.85c-0.47-0.5-1.02-0.87-1.66-1.06
			L73.45,427.83c-0.61-0.19-1.24-0.18-1.85-0.02c-0.61,0.16-1.21,0.49-1.76,0.94c-0.55,0.46-1.05,1.05-1.48,1.75
			c-0.42,0.7-0.77,1.5-1,2.39c-0.23,0.88-0.33,1.76-0.3,2.6c0.02,0.83,0.17,1.62,0.41,2.33c0.25,0.7,0.6,1.32,1.04,1.8
			c0.44,0.49,0.98,0.84,1.59,1.03L174.47,472.85 M90.96,350.38c-1.08,1.09-1.98,2.4-2.68,3.83c-0.71,1.43-1.22,2.99-1.52,4.57
			c-0.3,1.58-0.38,3.2-0.24,4.75c0.14,1.55,0.52,3.04,1.14,4.37l9.05,19.35l17.24-11.67c1.19-0.81,2.25-1.88,3.13-3.14
			c0.89-1.26,1.6-2.7,2.12-4.24c0.52-1.53,0.83-3.16,0.92-4.78c0.09-1.62-0.06-3.24-0.46-4.77c-0.23-0.86-0.53-1.65-0.89-2.36
			c-0.36-0.71-0.78-1.33-1.25-1.88c-0.47-0.54-0.99-1-1.54-1.36c-0.55-0.36-1.15-0.64-1.76-0.82c-0.48-0.14-0.97-0.22-1.47-0.24
			c-0.5-0.02-1.01,0.02-1.53,0.12c-0.52,0.1-1.04,0.26-1.56,0.48c-0.52,0.22-1.04,0.51-1.56,0.86l-3.13,2.13l-1.64-3.51
			c-0.27-0.58-0.58-1.11-0.92-1.58c-0.34-0.47-0.71-0.89-1.1-1.25c-0.39-0.36-0.81-0.67-1.25-0.91c-0.44-0.25-0.9-0.44-1.37-0.58
			c-0.61-0.18-1.25-0.26-1.9-0.24c-0.65,0.02-1.31,0.13-1.97,0.35c-0.66,0.21-1.32,0.53-1.97,0.94
			C92.21,349.24,91.57,349.76,90.96,350.38 M206.4,63.67c-0.63-0.14-1.28-0.1-1.91,0.11c-0.63,0.2-1.25,0.57-1.81,1.06
			c-0.57,0.49-1.08,1.11-1.51,1.83c-0.43,0.72-0.78,1.54-1.01,2.43c-0.23,0.89-0.33,1.77-0.3,2.59c0.03,0.82,0.18,1.59,0.44,2.27
			c0.26,0.68,0.63,1.26,1.09,1.71c0.46,0.45,1.02,0.77,1.65,0.91L282,94.47c0.65,0.15,1.32,0.1,1.97-0.1
			c0.65-0.2,1.29-0.57,1.87-1.07c0.58-0.5,1.11-1.13,1.56-1.86c0.44-0.73,0.8-1.57,1.04-2.47c0.24-0.91,0.33-1.8,0.3-2.64
			c-0.03-0.84-0.2-1.62-0.47-2.31c-0.27-0.69-0.66-1.28-1.13-1.74c-0.48-0.46-1.05-0.78-1.7-0.93L206.4,63.67 M313.3,451.32
			l10.17-38.91l-28.07-8.07l-10.11,38.69l16.12-4.07L313.3,451.32 M181.29,45.29c-1.66-0.37-3.37-0.24-5.04,0.31
			c-1.67,0.55-3.29,1.51-4.78,2.82c-1.49,1.3-2.85,2.95-3.99,4.86c-1.14,1.91-2.06,4.08-2.68,6.44c-0.62,2.36-0.87,4.69-0.8,6.87
			c0.07,2.18,0.47,4.22,1.15,6.02c0.68,1.79,1.65,3.34,2.86,4.53c1.21,1.19,2.67,2.03,4.33,2.41c1.66,0.38,3.37,0.26,5.04-0.27
			c1.67-0.54,3.3-1.5,4.8-2.8c1.5-1.3,2.87-2.95,4.02-4.87c1.15-1.92,2.08-4.1,2.7-6.47c0.62-2.37,0.87-4.7,0.79-6.89
			c-0.08-2.19-0.48-4.23-1.17-6.03c-0.69-1.79-1.67-3.34-2.89-4.53C184.42,46.49,182.96,45.66,181.29,45.29"/>
		<g>
			<linearGradient id="SVGID_2_" gradientUnits="userSpaceOnUse" x1="169.4098" y1="78.3844" x2="184.2951" y2="46.4627">
				<stop  offset="0" style="stop-color:#FF8A2E"/>
				<stop  offset="0.3103" style="stop-color:#FF9A3C"/>
				<stop  offset="0.9115" style="stop-color:#FFC360"/>
				<stop  offset="1" style="stop-color:#FFC966"/>
			</linearGradient>
			<path class="st1" d="M168.02,77.13c1.21,1.19,2.67,2.03,4.33,2.41c1.66,0.38,3.37,0.26,5.04-0.27c1.67-0.54,3.3-1.5,4.8-2.8
				c1.5-1.3,2.87-2.95,4.02-4.87c1.15-1.92,2.08-4.1,2.7-6.47c0.62-2.37,0.87-4.7,0.79-6.89c-0.08-2.19-0.48-4.23-1.17-6.03
				c-0.69-1.79-1.67-3.34-2.89-4.53c-1.22-1.19-2.68-2.02-4.35-2.39c-1.66-0.37-3.37-0.24-5.04,0.31c-1.67,0.55-3.29,1.51-4.78,2.82
				c-1.49,1.3-2.85,2.95-3.99,4.86c-1.14,1.91-2.06,4.08-2.68,6.44c-0.62,2.36-0.87,4.69-0.8,6.87c0.07,2.18,0.47,4.22,1.15,6.02
				C165.84,74.39,166.8,75.93,168.02,77.13z"/>
			<path class="st2" d="M179.55,460.83c-0.47-0.5-1.02-0.87-1.66-1.06L73.45,427.83c-0.61-0.19-1.24-0.18-1.85-0.02
				c-0.61,0.16-1.21,0.49-1.76,0.94c-0.55,0.46-1.05,1.05-1.48,1.74c-0.42,0.7-0.77,1.5-1,2.39c-0.23,0.88-0.33,1.76-0.3,2.6
				c0.02,0.83,0.17,1.62,0.41,2.33c0.25,0.7,0.6,1.32,1.04,1.8c0.44,0.49,0.98,0.85,1.59,1.03l104.37,32.21
				c0.64,0.2,1.29,0.2,1.93,0.04c0.64-0.16,1.26-0.49,1.83-0.95c0.57-0.46,1.09-1.07,1.53-1.78c0.44-0.71,0.79-1.53,1.03-2.44
				c0.24-0.9,0.33-1.81,0.3-2.66c-0.03-0.86-0.18-1.66-0.45-2.38C180.39,461.96,180.02,461.33,179.55,460.83z"/>
			<path class="st2" d="M201.39,75.68c0.46,0.45,1.01,0.77,1.65,0.91L282,94.47c0.65,0.15,1.32,0.1,1.97-0.1
				c0.65-0.2,1.29-0.57,1.87-1.07c0.58-0.5,1.11-1.13,1.56-1.86c0.44-0.73,0.8-1.57,1.04-2.47c0.24-0.91,0.33-1.8,0.3-2.64
				c-0.03-0.84-0.2-1.62-0.47-2.31c-0.27-0.69-0.66-1.28-1.13-1.74c-0.48-0.46-1.05-0.78-1.7-0.93L206.4,63.67
				c-0.63-0.14-1.28-0.1-1.91,0.11c-0.63,0.2-1.25,0.57-1.81,1.06c-0.57,0.49-1.08,1.11-1.51,1.83c-0.43,0.72-0.78,1.54-1.01,2.43
				c-0.23,0.89-0.33,1.77-0.3,2.59c0.03,0.82,0.18,1.59,0.44,2.27C200.56,74.64,200.92,75.23,201.39,75.68z"/>
			<linearGradient id="SVGID_3_" gradientUnits="userSpaceOnUse" x1="92.5527" y1="385.3117" x2="109.1197" y2="349.7837">
				<stop  offset="0" style="stop-color:#FF4C92"/>
				<stop  offset="1" style="stop-color:#E42176"/>
			</linearGradient>
			<path class="st3" d="M87.66,367.9l9.05,19.35l17.24-11.67c1.19-0.81,2.25-1.88,3.13-3.14c0.89-1.26,1.6-2.7,2.12-4.24
				c0.52-1.53,0.83-3.16,0.92-4.78c0.09-1.62-0.06-3.24-0.46-4.77c-0.23-0.86-0.53-1.65-0.89-2.36c-0.36-0.71-0.78-1.33-1.25-1.88
				c-0.47-0.54-0.99-1-1.54-1.36c-0.55-0.36-1.15-0.64-1.76-0.82c-0.48-0.14-0.97-0.22-1.47-0.24c-0.5-0.02-1.01,0.02-1.53,0.12
				c-0.52,0.1-1.04,0.26-1.56,0.48c-0.52,0.22-1.04,0.51-1.56,0.86l-3.13,2.13l-1.64-3.51c-0.27-0.58-0.58-1.11-0.92-1.58
				s-0.71-0.89-1.1-1.25c-0.39-0.36-0.81-0.67-1.25-0.91c-0.44-0.25-0.9-0.44-1.37-0.58c-0.61-0.18-1.25-0.26-1.9-0.24
				c-0.65,0.02-1.31,0.13-1.97,0.35c-0.66,0.21-1.32,0.53-1.97,0.94c-0.65,0.41-1.28,0.93-1.89,1.55c-1.08,1.09-1.98,2.4-2.68,3.83
				c-0.71,1.43-1.22,2.99-1.52,4.57c-0.3,1.58-0.38,3.2-0.24,4.75C86.66,365.08,87.04,366.57,87.66,367.9z"/>
			<linearGradient id="SVGID_4_" gradientUnits="userSpaceOnUse" x1="128.7127" y1="358.6477" x2="362.5596" y2="124.8008">
				<stop  offset="0" style="stop-color:#0091FF"/>
				<stop  offset="0.5567" style="stop-color:#A900FF"/>
				<stop  offset="0.6879" style="stop-color:#C70EE4"/>
				<stop  offset="0.8937" style="stop-color:#EF20BE"/>
				<stop  offset="1" style="stop-color:#FF28B0"/>
			</linearGradient>
			<polygon class="st4" points="154.61,98.73 95.44,325.37 329.7,391.68 391.81,154.05 			"/>
			<path class="st2" d="M243.75,452.01c-0.48-0.5-1.05-0.88-1.7-1.07L80.1,402.35c-0.61-0.18-1.24-0.18-1.85-0.01
				c-0.61,0.17-1.21,0.49-1.76,0.95c-0.55,0.46-1.05,1.05-1.48,1.75c-0.42,0.7-0.77,1.5-1,2.39c-0.23,0.88-0.33,1.76-0.3,2.6
				c0.02,0.83,0.17,1.62,0.41,2.32c0.25,0.7,0.6,1.31,1.05,1.8c0.44,0.48,0.98,0.84,1.59,1.02l161.83,49.01
				c0.65,0.2,1.32,0.2,1.97,0.04c0.65-0.16,1.29-0.49,1.87-0.96c0.58-0.47,1.12-1.08,1.56-1.8c0.45-0.72,0.81-1.55,1.05-2.47
				c0.24-0.92,0.33-1.83,0.3-2.69c-0.03-0.86-0.19-1.68-0.46-2.41C244.61,453.15,244.23,452.51,243.75,452.01z"/>
			<polygon class="st2" points="285.29,443.04 301.41,438.96 313.3,451.32 323.47,412.41 295.4,404.34 			"/>
		</g>
		<linearGradient id="SVGID_5_" gradientUnits="userSpaceOnUse" x1="268.09" y1="554.6187" x2="484.101" y2="91.3818">
			<stop  offset="0" style="stop-color:#7288D2"/>
			<stop  offset="0.2298" style="stop-color:#879CDE"/>
			<stop  offset="0.7377" style="stop-color:#AFC5F6"/>
			<stop  offset="1" style="stop-color:#BFD4FF"/>
		</linearGradient>
		<path class="st5" d="M460.35,92.19c0-0.04,0-0.07,0-0.11c-0.02-0.68-0.08-1.36-0.16-2.02c0-0.01,0-0.03,0-0.04
			c-0.01-0.12-0.04-0.23-0.06-0.35c-0.07-0.56-0.16-1.11-0.27-1.65c-0.01-0.06-0.02-0.11-0.03-0.17c-0.04-0.18-0.1-0.35-0.14-0.52
			c-0.1-0.42-0.21-0.85-0.33-1.26c-0.03-0.09-0.04-0.19-0.07-0.28c-0.05-0.15-0.1-0.31-0.15-0.46c-0.05-0.15-0.11-0.3-0.16-0.45
			c-0.02-0.06-0.04-0.12-0.07-0.18c0-0.01-0.01-0.02-0.01-0.03c0-0.01-0.01-0.02-0.01-0.03c-0.03-0.07-0.05-0.14-0.08-0.21
			c-0.06-0.15-0.12-0.29-0.18-0.44c-0.05-0.11-0.1-0.22-0.14-0.33c-0.05-0.11-0.1-0.22-0.15-0.33c-0.04-0.09-0.09-0.18-0.13-0.27
			c0,0,0-0.01-0.01-0.01c-0.01-0.01-0.01-0.03-0.02-0.04c-0.05-0.11-0.11-0.21-0.16-0.32c-0.05-0.09-0.09-0.18-0.14-0.27
			c-0.05-0.09-0.1-0.18-0.15-0.26c-0.05-0.09-0.1-0.17-0.15-0.26c-0.05-0.09-0.1-0.17-0.15-0.26c-0.02-0.03-0.03-0.05-0.05-0.08
			c0-0.01-0.01-0.01-0.01-0.02c-0.03-0.04-0.05-0.09-0.08-0.13c-0.05-0.07-0.09-0.15-0.14-0.22c-0.05-0.07-0.1-0.15-0.15-0.22
			c-0.05-0.07-0.1-0.15-0.15-0.22c-0.05-0.07-0.09-0.13-0.14-0.2c-0.05-0.07-0.1-0.13-0.15-0.2c-0.04-0.06-0.09-0.11-0.13-0.17
			c0,0,0-0.01-0.01-0.01c0-0.01-0.01-0.01-0.01-0.02c-0.05-0.06-0.1-0.13-0.15-0.19c-0.05-0.06-0.1-0.12-0.15-0.18
			c-0.05-0.06-0.1-0.12-0.15-0.18c-0.05-0.06-0.1-0.12-0.15-0.17c-0.05-0.06-0.1-0.11-0.15-0.17c-0.05-0.05-0.1-0.11-0.15-0.16
			c-0.05-0.05-0.1-0.1-0.15-0.16c0,0,0,0-0.01-0.01c0,0,0,0,0,0c0,0,0,0,0,0c-0.05-0.05-0.09-0.1-0.14-0.14
			c-0.05-0.05-0.1-0.1-0.15-0.15c-0.05-0.05-0.1-0.1-0.15-0.14c-0.05-0.05-0.1-0.1-0.15-0.14c-0.05-0.05-0.1-0.09-0.15-0.14
			c-0.05-0.05-0.1-0.09-0.16-0.14c-0.05-0.04-0.1-0.09-0.15-0.13c-0.04-0.03-0.07-0.06-0.11-0.09c0,0-0.01-0.01-0.01-0.01
			c-0.01-0.01-0.03-0.02-0.04-0.03c-0.05-0.04-0.11-0.08-0.16-0.13c-0.05-0.04-0.11-0.08-0.16-0.12c-0.05-0.04-0.11-0.08-0.16-0.12
			c-0.05-0.04-0.11-0.08-0.16-0.12c-0.05-0.04-0.11-0.08-0.16-0.11c-0.05-0.04-0.11-0.08-0.16-0.11c-0.06-0.04-0.11-0.07-0.17-0.11
			c-0.03-0.02-0.07-0.04-0.1-0.06c0,0-0.01,0-0.01-0.01c-0.02-0.01-0.04-0.02-0.06-0.04c-0.06-0.04-0.11-0.07-0.17-0.1
			c-0.06-0.03-0.11-0.07-0.17-0.1c-0.06-0.03-0.12-0.07-0.17-0.1c-0.06-0.03-0.12-0.06-0.18-0.1c-0.06-0.03-0.12-0.06-0.18-0.09
			c-0.06-0.03-0.12-0.06-0.18-0.09c-0.06-0.03-0.12-0.06-0.18-0.09c-0.03-0.01-0.06-0.03-0.08-0.04c0,0-0.01,0-0.01-0.01
			c-0.03-0.01-0.06-0.03-0.09-0.04c-0.06-0.03-0.13-0.06-0.19-0.08c-0.06-0.03-0.13-0.05-0.19-0.08c-0.06-0.03-0.13-0.05-0.2-0.08
			c-0.07-0.03-0.13-0.05-0.2-0.08c-0.07-0.02-0.13-0.05-0.2-0.07c-0.07-0.02-0.13-0.05-0.2-0.07c-0.02-0.01-0.04-0.01-0.05-0.02
			c-0.02-0.01-0.04-0.01-0.05-0.02c-0.02-0.01-0.04-0.01-0.05-0.02c-0.02-0.01-0.04-0.01-0.05-0.02
			c-9.22-2.89-18.44-5.78-27.66-8.66c0.51,0.16,1,0.35,1.48,0.57c0,0,0.01,0,0.01,0.01c0.47,0.22,0.93,0.47,1.37,0.75
			c0,0,0.01,0.01,0.01,0.01c0.44,0.28,0.87,0.59,1.27,0.92c0,0,0,0,0.01,0c0.41,0.34,0.8,0.7,1.17,1.09c0,0,0,0,0,0
			c0.37,0.39,0.73,0.8,1.06,1.24c0,0,0,0,0,0.01c0.33,0.43,0.64,0.89,0.94,1.37c0,0.01,0.01,0.01,0.01,0.02
			c0.29,0.48,0.56,0.97,0.81,1.49c0,0.01,0.01,0.01,0.01,0.02c0.25,0.51,0.47,1.04,0.68,1.58c0.01,0.02,0.01,0.04,0.02,0.06
			c0.17,0.44,0.31,0.91,0.45,1.37c0.12,0.41,0.23,0.83,0.33,1.26c0.05,0.23,0.12,0.46,0.17,0.7c0.11,0.54,0.19,1.09,0.27,1.65
			c0.02,0.14,0.05,0.27,0.06,0.4c0.08,0.7,0.13,1.41,0.15,2.14c0.01,0.2,0,0.41,0,0.62c0,0.53,0,1.05-0.02,1.59
			c-0.03,0.6-0.07,1.2-0.14,1.8c0,0,0,0,0,0c-0.08,0.7-0.18,1.41-0.32,2.12c0,0,0,0,0,0c-0.13,0.71-0.29,1.43-0.48,2.15
			l-119.43,456.9l0,0c-0.18,0.71-0.39,1.4-0.62,2.08c0,0.01,0,0.01-0.01,0.02c-0.23,0.67-0.48,1.33-0.75,1.97c0,0,0,0.01,0,0.01
			c-0.27,0.64-0.56,1.26-0.87,1.87c0,0,0,0,0,0.01c-0.31,0.6-0.63,1.19-0.97,1.75c0,0.01-0.01,0.01-0.01,0.01
			c-0.34,0.56-0.7,1.1-1.07,1.62c0,0-0.01,0.01-0.01,0.01c-0.37,0.52-0.76,1.02-1.16,1.5c0,0,0,0,0,0c-0.4,0.48-0.81,0.93-1.24,1.36
			c-0.01,0.01-0.01,0.01-0.02,0.02c-0.42,0.42-0.85,0.82-1.29,1.2c-0.01,0.01-0.02,0.02-0.03,0.03c-0.44,0.37-0.89,0.72-1.34,1.04
			c-0.01,0.01-0.03,0.02-0.04,0.03c-0.36,0.25-0.73,0.47-1.1,0.69c-0.14,0.08-0.28,0.18-0.43,0.26c-0.44,0.25-0.89,0.47-1.34,0.67
			c-0.01,0-0.02,0.01-0.03,0.01c-0.46,0.2-0.93,0.37-1.4,0.52c-0.15,0.05-0.3,0.08-0.45,0.13c-0.32,0.09-0.65,0.18-0.97,0.24
			c-0.18,0.04-0.35,0.07-0.53,0.09c-0.31,0.05-0.62,0.09-0.93,0.12c-0.18,0.02-0.36,0.03-0.53,0.04c-0.33,0.01-0.66,0.01-0.99,0
			c-0.15-0.01-0.31,0-0.46-0.02c-0.48-0.04-0.96-0.09-1.44-0.19l28.43,5.66c0.48,0.1,0.96,0.15,1.44,0.19
			c0.15,0.01,0.31,0.01,0.46,0.02c0.23,0.01,0.46,0.03,0.69,0.02c0.1,0,0.2-0.02,0.3-0.02c0.18-0.01,0.36-0.02,0.53-0.04
			c0.31-0.03,0.62-0.06,0.93-0.11c0.18-0.03,0.35-0.06,0.53-0.09c0.1-0.02,0.19-0.03,0.29-0.05c0.23-0.05,0.46-0.13,0.69-0.19
			c0.11-0.03,0.23-0.05,0.34-0.08c0.04-0.01,0.07-0.03,0.11-0.04c0.47-0.15,0.94-0.32,1.39-0.52c0,0,0,0,0,0
			c0.01,0,0.02-0.01,0.03-0.02c0.45-0.2,0.89-0.42,1.33-0.66c0.15-0.08,0.29-0.17,0.43-0.26c0.21-0.12,0.42-0.24,0.63-0.38
			c0.12-0.08,0.25-0.16,0.37-0.25c0.03-0.02,0.06-0.04,0.09-0.06c0.01-0.01,0.03-0.02,0.04-0.03c0.08-0.05,0.15-0.11,0.23-0.16
			c0.12-0.09,0.24-0.18,0.36-0.27c0.12-0.09,0.24-0.18,0.36-0.28c0.09-0.07,0.19-0.15,0.28-0.23c0.04-0.03,0.08-0.06,0.11-0.1
			c0.01,0,0.01-0.01,0.02-0.01c0.01,0,0.01-0.01,0.02-0.01c0.04-0.04,0.09-0.07,0.13-0.11c0.09-0.08,0.18-0.16,0.27-0.24
			c0.09-0.08,0.18-0.16,0.27-0.25c0.08-0.07,0.16-0.15,0.23-0.22c0.08-0.07,0.15-0.15,0.23-0.22c0.05-0.05,0.1-0.1,0.15-0.15
			c0.01-0.01,0.01-0.01,0.02-0.02c0.02-0.02,0.04-0.04,0.06-0.06c0.08-0.08,0.15-0.15,0.23-0.23c0.07-0.07,0.13-0.14,0.2-0.21
			c0.07-0.07,0.13-0.14,0.2-0.21c0.07-0.07,0.13-0.14,0.2-0.22c0.06-0.07,0.13-0.15,0.19-0.22c0.05-0.06,0.11-0.12,0.16-0.19
			c0,0,0,0,0-0.01c0.01-0.01,0.01-0.01,0.02-0.02c0.06-0.07,0.12-0.14,0.18-0.21c0.06-0.07,0.12-0.14,0.18-0.22
			c0.06-0.07,0.12-0.15,0.17-0.22c0.06-0.07,0.11-0.14,0.17-0.21c0.05-0.07,0.11-0.14,0.16-0.22c0.05-0.07,0.11-0.15,0.16-0.22
			c0.04-0.06,0.08-0.11,0.12-0.17c0,0,0.01-0.01,0.01-0.01c0.01-0.01,0.02-0.02,0.03-0.04c0.05-0.07,0.1-0.14,0.15-0.21
			c0.05-0.07,0.1-0.14,0.15-0.21c0.05-0.07,0.1-0.14,0.15-0.22c0.05-0.07,0.1-0.15,0.14-0.22c0.05-0.07,0.09-0.14,0.14-0.22
			c0.05-0.07,0.09-0.14,0.14-0.22c0.05-0.07,0.09-0.15,0.14-0.22c0.01-0.02,0.03-0.04,0.04-0.07c0,0,0,0,0,0c0,0,0,0,0,0
			c0.03-0.05,0.06-0.1,0.09-0.15c0.04-0.07,0.09-0.15,0.13-0.22c0.04-0.07,0.09-0.15,0.13-0.22c0.04-0.07,0.09-0.15,0.13-0.22
			c0.04-0.07,0.08-0.15,0.13-0.23c0.04-0.07,0.08-0.15,0.12-0.22c0.04-0.08,0.08-0.15,0.12-0.23c0.04-0.08,0.08-0.15,0.12-0.23
			c0-0.01,0.01-0.02,0.01-0.02c0,0,0,0,0,0c0.04-0.07,0.07-0.14,0.1-0.2c0.04-0.08,0.08-0.15,0.11-0.23
			c0.04-0.08,0.08-0.16,0.11-0.23c0.04-0.08,0.07-0.16,0.11-0.24c0.04-0.08,0.07-0.16,0.11-0.24c0.04-0.08,0.07-0.16,0.11-0.24
			c0.04-0.08,0.07-0.16,0.11-0.24c0.03-0.08,0.07-0.15,0.1-0.23c0,0,0-0.01,0-0.01c0,0,0-0.01,0-0.01c0.03-0.08,0.07-0.16,0.1-0.25
			c0.03-0.08,0.07-0.17,0.1-0.25c0.03-0.09,0.07-0.17,0.1-0.26c0.03-0.09,0.07-0.17,0.1-0.26c0.03-0.09,0.06-0.17,0.1-0.26
			c0.03-0.09,0.07-0.18,0.1-0.27c0.03-0.09,0.06-0.18,0.09-0.27c0.02-0.05,0.03-0.1,0.05-0.14c0,0,0-0.01,0.01-0.01
			c0.01-0.04,0.03-0.07,0.04-0.11c0.03-0.09,0.06-0.18,0.09-0.27c0.03-0.1,0.06-0.19,0.09-0.29c0.03-0.1,0.06-0.2,0.09-0.29
			c0.03-0.1,0.06-0.2,0.09-0.3c0.03-0.1,0.06-0.2,0.08-0.3c0.01-0.04,0.02-0.08,0.04-0.13c0.01-0.04,0.02-0.08,0.03-0.13
			c0.01-0.04,0.02-0.08,0.03-0.13c0.01-0.04,0.02-0.08,0.03-0.13l0,0L459.4,100.43c0.02-0.06,0.03-0.13,0.05-0.19
			c0.02-0.06,0.03-0.13,0.05-0.19c0.02-0.06,0.03-0.13,0.05-0.19c0.02-0.06,0.03-0.13,0.05-0.19c0.03-0.12,0.05-0.23,0.08-0.35
			c0.03-0.12,0.05-0.23,0.08-0.35c0.02-0.12,0.05-0.23,0.07-0.35c0.02-0.11,0.04-0.21,0.06-0.32c0,0,0-0.01,0-0.01
			c0-0.01,0-0.01,0-0.02c0.02-0.13,0.05-0.27,0.07-0.4c0.02-0.13,0.04-0.27,0.06-0.4c0.02-0.13,0.04-0.26,0.06-0.4
			c0.02-0.13,0.04-0.26,0.05-0.4c0.02-0.16,0.04-0.33,0.06-0.49c0,0,0-0.01,0-0.01c0-0.01,0-0.01,0-0.02
			c0.02-0.17,0.04-0.34,0.05-0.52c0.02-0.17,0.03-0.34,0.04-0.51c0.01-0.17,0.02-0.34,0.03-0.51c0-0.08,0-0.15,0-0.23
			c0.03-0.53,0.03-1.06,0.02-1.58c0-0.17,0.01-0.35,0.01-0.52C460.36,92.25,460.35,92.22,460.35,92.19z"/>
	</g>
	<g>
		<linearGradient id="SVGID_6_" gradientUnits="userSpaceOnUse" x1="364.5906" y1="308.8219" x2="389.2163" y2="256.0119">
			<stop  offset="0" style="stop-color:#7288D2"/>
			<stop  offset="0.2703" style="stop-color:#8298DB"/>
			<stop  offset="1" style="stop-color:#A9BEF3"/>
		</linearGradient>
		<path class="st6" d="M428.29,274.23l-11.91-5.22c-1.08,1.11-2.19,2.19-3.32,3.25c-0.07,0.06-0.13,0.13-0.2,0.19
			c-0.89,0.83-1.8,1.63-2.71,2.43c-0.19,0.17-0.38,0.33-0.58,0.5c-0.91,0.78-1.83,1.54-2.77,2.28c-0.11,0.09-0.22,0.17-0.34,0.26
			c-1.23,0.96-2.48,1.9-3.75,2.79c-0.13,0.09-0.25,0.17-0.38,0.26c-1.26,0.88-2.53,1.73-3.82,2.54c-0.2,0.13-0.4,0.25-0.6,0.37
			c-0.71,0.44-1.42,0.86-2.13,1.28c-0.23,0.13-0.46,0.27-0.69,0.4c-0.9,0.51-1.8,1.01-2.71,1.48c-0.15,0.08-0.3,0.15-0.45,0.23
			c-0.78,0.41-1.57,0.8-2.36,1.18c-0.26,0.12-0.52,0.25-0.77,0.37c-0.87,0.41-1.74,0.8-2.62,1.18c-0.07,0.03-0.14,0.06-0.21,0.09
			c-0.94,0.4-1.89,0.78-2.85,1.15c-0.26,0.1-0.52,0.19-0.78,0.29c-0.78,0.29-1.56,0.57-2.34,0.83c-0.21,0.07-0.42,0.15-0.64,0.22
			c-0.96,0.32-1.93,0.62-2.9,0.9c-0.22,0.06-0.44,0.12-0.66,0.18c-0.79,0.22-1.58,0.43-2.38,0.63c-0.27,0.07-0.53,0.13-0.8,0.2
			c-0.99,0.24-1.98,0.46-2.97,0.65c-0.1,0.02-0.2,0.04-0.3,0.06c-0.9,0.18-1.81,0.33-2.72,0.48c-0.28,0.04-0.56,0.09-0.84,0.13
			c-0.87,0.13-1.74,0.24-2.62,0.34c-0.15,0.02-0.3,0.04-0.45,0.05c-1.01,0.11-2.02,0.19-3.03,0.26c-0.26,0.02-0.53,0.03-0.79,0.04
			c-0.81,0.05-1.63,0.08-2.45,0.1c-0.25,0.01-0.5,0.02-0.74,0.02c-1.02,0.01-2.03,0.01-3.05-0.02c-0.2-0.01-0.4-0.02-0.59-0.02
			c-0.85-0.03-1.7-0.07-2.55-0.13c-0.28-0.02-0.56-0.04-0.85-0.06c-1.03-0.08-2.06-0.18-3.1-0.31c-7.13-0.87-13.84-2.74-20.06-5.47
			l11.91,5.22c6.22,2.73,12.94,4.6,20.06,5.47c1.03,0.13,2.07,0.22,3.1,0.31c0.28,0.02,0.56,0.04,0.85,0.06
			c0.85,0.06,1.7,0.1,2.55,0.13c0.2,0.01,0.4,0.02,0.59,0.02c1.02,0.03,2.04,0.03,3.05,0.02c0.25,0,0.5-0.01,0.74-0.02
			c0.82-0.02,1.63-0.05,2.45-0.1c0.26-0.01,0.53-0.03,0.79-0.04c1.01-0.07,2.02-0.15,3.03-0.26c0.15-0.02,0.3-0.04,0.45-0.05
			c0.88-0.1,1.75-0.21,2.62-0.34c0.28-0.04,0.56-0.08,0.84-0.13c0.91-0.14,1.82-0.3,2.72-0.48c0.1-0.02,0.2-0.04,0.3-0.06
			c1-0.2,1.99-0.42,2.97-0.65c0.27-0.06,0.53-0.13,0.8-0.2c0.8-0.2,1.59-0.41,2.38-0.63c0.22-0.06,0.44-0.12,0.66-0.18
			c0.97-0.28,1.94-0.58,2.9-0.9c0.21-0.07,0.42-0.14,0.63-0.22c0.78-0.27,1.57-0.55,2.34-0.84c0.26-0.1,0.52-0.19,0.78-0.29
			c0.95-0.37,1.9-0.75,2.85-1.15c0.07-0.03,0.15-0.07,0.22-0.1c0.87-0.38,1.74-0.77,2.61-1.17c0.26-0.12,0.52-0.25,0.78-0.37
			c0.79-0.38,1.58-0.77,2.36-1.18c0.15-0.08,0.3-0.15,0.45-0.23c0.91-0.48,1.81-0.97,2.71-1.49c0.23-0.13,0.46-0.27,0.69-0.4
			c0.71-0.42,1.42-0.84,2.13-1.28c0.14-0.09,0.29-0.17,0.44-0.26c0.06-0.04,0.11-0.08,0.17-0.11c1.29-0.81,2.56-1.66,3.82-2.54
			c0.12-0.09,0.25-0.17,0.38-0.26c1.27-0.9,2.52-1.83,3.75-2.79c0.07-0.05,0.14-0.1,0.21-0.16c0.04-0.03,0.08-0.07,0.13-0.1
			c0.93-0.74,1.85-1.5,2.76-2.27c0.19-0.17,0.39-0.33,0.58-0.5c0.91-0.79,1.82-1.6,2.71-2.42c0.02-0.02,0.04-0.04,0.06-0.06
			c0.05-0.04,0.09-0.09,0.14-0.14C426.1,276.43,427.21,275.35,428.29,274.23z"/>
		<linearGradient id="SVGID_7_" gradientUnits="userSpaceOnUse" x1="329.7531" y1="276.477" x2="401.9711" y2="121.605">
			<stop  offset="0" style="stop-color:#259CFE"/>
			<stop  offset="1" style="stop-color:#6AD7FD"/>
		</linearGradient>
		<path class="st7" d="M379.98,115.26c44.88,5.51,73.56,50.45,64.06,100.38c-3.98,20.92-14.03,39.38-27.66,53.38
			c-1.47-31.41-22.18-56.97-51.9-60.62c-31.18-3.83-61.87,17.73-73.89,49.82c-9.71-17.53-13.46-39.5-9.07-62.53
			C291.01,145.75,335.11,109.75,379.98,115.26z M363.93,199.64c15.56,1.91,30.84-10.58,34.13-27.89
			c3.29-17.31-6.65-32.88-22.2-34.79c-15.56-1.91-30.85,10.57-34.14,27.88C338.42,182.14,348.37,197.73,363.93,199.64"/>
		<g>
			<g>
				<g>
					<linearGradient id="SVGID_8_" gradientUnits="userSpaceOnUse" x1="357.2357" y1="141.1589" x2="382.544" y2="195.4328">
						<stop  offset="0" style="stop-color:#BFD4FF"/>
						<stop  offset="1" style="stop-color:#FFFFFF"/>
					</linearGradient>
					<path class="st8" d="M375.86,136.96c15.56,1.91,25.5,17.49,22.2,34.79c-3.29,17.31-18.58,29.8-34.13,27.89
						c-15.56-1.91-25.51-17.5-22.21-34.81C345.01,147.52,360.3,135.04,375.86,136.96z"/>
					<path class="st9" d="M375.86,136.96c15.56,1.91,25.5,17.49,22.2,34.79c-3.29,17.31-18.58,29.8-34.13,27.89
						c-15.56-1.91-25.51-17.5-22.21-34.81C345.01,147.52,360.3,135.04,375.86,136.96z"/>
				</g>
				<g>
					<linearGradient id="SVGID_9_" gradientUnits="userSpaceOnUse" x1="332.8585" y1="212.9455" x2="371.9136" y2="296.6996">
						<stop  offset="0" style="stop-color:#BFD4FF"/>
						<stop  offset="1" style="stop-color:#FFFFFF"/>
					</linearGradient>
					<path class="st10" d="M364.48,208.39c29.72,3.65,50.44,29.21,51.9,60.62c-18.91,19.43-44.72,30.26-70.81,27.06
						c-24.18-2.97-43.65-17.39-54.99-37.86C302.61,226.13,333.3,204.57,364.48,208.39z"/>
					<path class="st9" d="M364.48,208.39c29.72,3.65,50.44,29.21,51.9,60.62c-18.91,19.43-44.72,30.26-70.81,27.06
						c-24.18-2.97-43.65-17.39-54.99-37.86C302.61,226.13,333.3,204.57,364.48,208.39z"/>
				</g>
			</g>
			<g>
				<g>
					<linearGradient id="SVGID_10_" gradientUnits="userSpaceOnUse" x1="338.0285" y1="296.4568" x2="406.3964" y2="149.8414">
						<stop  offset="0" style="stop-color:#BFD4FF"/>
						<stop  offset="0.8532" style="stop-color:#FFFFFF"/>
					</linearGradient>
					<path class="st11" d="M375.86,136.96c15.56,1.91,25.5,17.49,22.2,34.79c-3.29,17.31-18.58,29.8-34.13,27.89
						c-15.56-1.91-25.51-17.5-22.21-34.81C345.01,147.52,360.3,135.04,375.86,136.96z"/>
					<linearGradient id="SVGID_11_" gradientUnits="userSpaceOnUse" x1="338.0285" y1="296.4568" x2="406.3964" y2="149.8414">
						<stop  offset="0" style="stop-color:#BFD4FF"/>
						<stop  offset="0.8532" style="stop-color:#FFFFFF"/>
					</linearGradient>
					<path class="st12" d="M375.86,136.96c15.56,1.91,25.5,17.49,22.2,34.79c-3.29,17.31-18.58,29.8-34.13,27.89
						c-15.56-1.91-25.51-17.5-22.21-34.81C345.01,147.52,360.3,135.04,375.86,136.96z"/>
					<linearGradient id="SVGID_12_" gradientUnits="userSpaceOnUse" x1="338.0285" y1="296.4568" x2="406.3964" y2="149.8414">
						<stop  offset="0" style="stop-color:#BFD4FF"/>
						<stop  offset="0.8532" style="stop-color:#FFFFFF"/>
					</linearGradient>
					<path class="st13" d="M375.86,136.96c15.56,1.91,25.5,17.49,22.2,34.79c-3.29,17.31-18.58,29.8-34.13,27.89
						c-15.56-1.91-25.51-17.5-22.21-34.81C345.01,147.52,360.3,135.04,375.86,136.96z"/>
				</g>
				<g>
					<linearGradient id="SVGID_13_" gradientUnits="userSpaceOnUse" x1="338.0285" y1="296.4568" x2="406.3964" y2="149.8414">
						<stop  offset="0" style="stop-color:#BFD4FF"/>
						<stop  offset="0.8532" style="stop-color:#FFFFFF"/>
					</linearGradient>
					<path class="st14" d="M364.48,208.39c29.72,3.65,50.44,29.21,51.9,60.62c-18.91,19.43-44.72,30.26-70.81,27.06
						c-24.18-2.97-43.65-17.39-54.99-37.86C302.61,226.13,333.3,204.57,364.48,208.39z"/>
					<linearGradient id="SVGID_14_" gradientUnits="userSpaceOnUse" x1="338.0285" y1="296.4568" x2="406.3964" y2="149.8414">
						<stop  offset="0" style="stop-color:#BFD4FF"/>
						<stop  offset="0.8532" style="stop-color:#FFFFFF"/>
					</linearGradient>
					<path class="st15" d="M364.48,208.39c29.72,3.65,50.44,29.21,51.9,60.62c-18.91,19.43-44.72,30.26-70.81,27.06
						c-24.18-2.97-43.65-17.39-54.99-37.86C302.61,226.13,333.3,204.57,364.48,208.39z"/>
					<linearGradient id="SVGID_15_" gradientUnits="userSpaceOnUse" x1="338.0285" y1="296.4568" x2="406.3964" y2="149.8414">
						<stop  offset="0" style="stop-color:#BFD4FF"/>
						<stop  offset="0.8532" style="stop-color:#FFFFFF"/>
					</linearGradient>
					<path class="st16" d="M364.48,208.39c29.72,3.65,50.44,29.21,51.9,60.62c-18.91,19.43-44.72,30.26-70.81,27.06
						c-24.18-2.97-43.65-17.39-54.99-37.86C302.61,226.13,333.3,204.57,364.48,208.39z"/>
				</g>
			</g>
		</g>
		<linearGradient id="SVGID_16_" gradientUnits="userSpaceOnUse" x1="389.7782" y1="256.6079" x2="443.7925" y2="140.7738">
			<stop  offset="0" style="stop-color:#066EFF"/>
			<stop  offset="0.7343" style="stop-color:#259CFE"/>
			<stop  offset="1" style="stop-color:#066EFF"/>
		</linearGradient>
		<path class="st17" d="M457.07,213.57c0.04-0.33,0.08-0.65,0.11-0.98c0.12-1.1,0.22-2.2,0.31-3.29c0-0.06,0.01-0.12,0.01-0.17
			c0.07-0.93,0.12-1.86,0.17-2.79c0.01-0.14,0-0.27,0.01-0.41c0.07-1.58,0.1-3.15,0.09-4.71c0-0.28-0.01-0.56-0.02-0.84
			c-0.02-1.31-0.07-2.61-0.14-3.9c-0.02-0.45-0.05-0.89-0.08-1.33c-0.09-1.34-0.21-2.68-0.36-4.01c-0.02-0.21-0.04-0.42-0.06-0.62
			c-0.18-1.51-0.4-3-0.65-4.49c-0.07-0.4-0.14-0.79-0.22-1.19c-0.21-1.16-0.44-2.31-0.7-3.45c-0.08-0.38-0.16-0.76-0.25-1.14
			c-0.34-1.44-0.71-2.87-1.11-4.28c-0.06-0.22-0.14-0.44-0.2-0.66c-0.36-1.2-0.74-2.4-1.15-3.58c-0.14-0.4-0.28-0.8-0.42-1.19
			c-0.42-1.16-0.86-2.32-1.33-3.45c-0.07-0.17-0.13-0.34-0.2-0.51c-0.02-0.04-0.04-0.09-0.06-0.13c-0.6-1.43-1.25-2.84-1.92-4.23
			c-0.16-0.33-0.33-0.66-0.49-0.99c-0.65-1.3-1.33-2.58-2.05-3.84c-0.05-0.08-0.08-0.16-0.13-0.24c-0.01-0.02-0.03-0.05-0.04-0.07
			c-0.63-1.09-1.28-2.15-1.95-3.2c-0.19-0.29-0.39-0.58-0.58-0.87c-0.49-0.75-0.99-1.49-1.51-2.22c-0.09-0.13-0.17-0.26-0.26-0.38
			c-0.22-0.31-0.45-0.6-0.68-0.9c-0.35-0.47-0.7-0.95-1.06-1.41c-0.34-0.43-0.68-0.86-1.02-1.28c-0.37-0.45-0.74-0.91-1.12-1.35
			c-0.12-0.15-0.24-0.3-0.37-0.45c-0.26-0.31-0.54-0.6-0.81-0.9c-0.31-0.35-0.62-0.7-0.94-1.04c-0.42-0.46-0.86-0.91-1.29-1.35
			c-0.32-0.32-0.63-0.65-0.95-0.97c-0.09-0.08-0.17-0.17-0.25-0.26c-0.46-0.45-0.93-0.88-1.4-1.32c-0.2-0.19-0.4-0.39-0.61-0.58
			c-0.75-0.68-1.51-1.35-2.29-2c-0.02-0.02-0.05-0.04-0.07-0.06c-0.15-0.13-0.31-0.25-0.46-0.37c-0.65-0.53-1.3-1.05-1.96-1.56
			c-0.28-0.22-0.57-0.42-0.86-0.64c-0.36-0.27-0.71-0.54-1.07-0.8c-0.19-0.14-0.4-0.27-0.59-0.41c-0.31-0.22-0.62-0.43-0.93-0.64
			c-0.56-0.38-1.13-0.75-1.7-1.11c-0.31-0.19-0.61-0.39-0.92-0.58c-0.15-0.09-0.3-0.19-0.45-0.28c-0.51-0.3-1.02-0.59-1.53-0.89
			c-0.23-0.13-0.45-0.27-0.69-0.39c-0.86-0.48-1.72-0.94-2.6-1.38c-0.04-0.02-0.07-0.03-0.11-0.05c-1.04-0.52-2.1-1.02-3.17-1.49
			l-11.91-5.22c1.07,0.47,2.13,0.97,3.17,1.49c0.92,0.46,1.82,0.93,2.71,1.43c0.23,0.13,0.46,0.27,0.69,0.4
			c0.66,0.38,1.32,0.76,1.97,1.16c0.31,0.19,0.62,0.39,0.93,0.58c0.57,0.36,1.14,0.73,1.69,1.11c0.31,0.21,0.62,0.42,0.93,0.64
			c0.56,0.39,1.11,0.79,1.66,1.2c0.29,0.21,0.58,0.42,0.86,0.64c0.66,0.5,1.31,1.02,1.95,1.55c0.15,0.13,0.31,0.25,0.47,0.38
			c0.8,0.67,1.59,1.36,2.36,2.06c0.21,0.19,0.41,0.39,0.62,0.59c0.55,0.52,1.1,1.04,1.64,1.57c0.32,0.32,0.63,0.65,0.95,0.97
			c0.43,0.45,0.87,0.89,1.29,1.35c0.32,0.34,0.63,0.69,0.94,1.04c0.4,0.44,0.79,0.89,1.18,1.35c0.38,0.45,0.75,0.9,1.12,1.36
			c0.34,0.42,0.69,0.85,1.02,1.28c0.36,0.46,0.71,0.94,1.06,1.41c0.31,0.43,0.63,0.85,0.94,1.28c0.52,0.73,1.02,1.47,1.51,2.22
			c0.19,0.29,0.39,0.58,0.58,0.87c0.67,1.05,1.32,2.11,1.95,3.2c0.06,0.1,0.11,0.21,0.17,0.31c0.72,1.25,1.4,2.54,2.05,3.84
			c0.17,0.33,0.33,0.66,0.49,0.99c0.67,1.39,1.32,2.79,1.92,4.23c0.09,0.21,0.17,0.43,0.26,0.64c0.47,1.14,0.91,2.29,1.33,3.45
			c0.14,0.4,0.28,0.79,0.42,1.19c0.41,1.18,0.79,2.37,1.15,3.58c0.07,0.22,0.14,0.44,0.2,0.66c0.41,1.41,0.77,2.84,1.11,4.28
			c0.09,0.38,0.17,0.76,0.25,1.14c0.25,1.14,0.48,2.29,0.7,3.45c0.07,0.4,0.15,0.79,0.21,1.19c0.25,1.48,0.47,2.98,0.65,4.49
			c0.02,0.21,0.04,0.42,0.06,0.62c0.15,1.33,0.27,2.66,0.36,4.01c0.03,0.44,0.06,0.89,0.08,1.33c0.07,1.29,0.12,2.59,0.14,3.9
			c0,0.28,0.02,0.56,0.02,0.84c0.01,1.56-0.02,3.13-0.09,4.71c-0.04,1.06-0.1,2.12-0.17,3.19c0,0.06-0.01,0.12-0.02,0.17
			c-0.08,1.09-0.19,2.19-0.31,3.29c-0.04,0.33-0.07,0.65-0.11,0.98c-0.11,0.94-0.23,1.88-0.37,2.82c-0.04,0.24-0.07,0.49-0.1,0.73
			c-0.19,1.24-0.4,2.48-0.64,3.73c-0.31,1.62-0.66,3.22-1.04,4.8c-0.14,0.6-0.29,1.2-0.45,1.8c-0.15,0.59-0.3,1.18-0.47,1.76
			c-0.18,0.66-0.37,1.31-0.57,1.97c-0.17,0.58-0.34,1.16-0.52,1.73c-0.23,0.72-0.47,1.43-0.71,2.14c-0.15,0.44-0.3,0.89-0.45,1.33
			c-0.29,0.81-0.59,1.61-0.89,2.41c-0.13,0.34-0.26,0.69-0.39,1.04c-0.44,1.11-0.9,2.22-1.37,3.31c-0.1,0.24-0.22,0.48-0.32,0.72
			c-0.38,0.85-0.76,1.7-1.16,2.54c-0.17,0.36-0.35,0.72-0.53,1.08c-0.35,0.71-0.7,1.41-1.06,2.11c-0.2,0.38-0.4,0.77-0.6,1.15
			c-0.25,0.47-0.51,0.93-0.77,1.4c-0.89,1.61-1.81,3.2-2.77,4.74c-0.08,0.13-0.16,0.25-0.25,0.38c-0.95,1.51-1.94,2.99-2.96,4.44
			c-0.17,0.25-0.34,0.49-0.52,0.74c-1.09,1.52-2.22,3-3.39,4.45c-0.33,0.41-0.66,0.82-0.99,1.22c-0.33,0.4-0.66,0.79-0.99,1.18
			c-0.44,0.52-0.89,1.03-1.34,1.53c-0.33,0.38-0.67,0.75-1.01,1.12c-0.71,0.77-1.42,1.54-2.15,2.29l11.91,5.22
			c0.59-0.6,1.17-1.21,1.74-1.83c0.14-0.15,0.27-0.31,0.41-0.46c0.34-0.37,0.67-0.75,1.01-1.12c0.45-0.51,0.9-1.02,1.34-1.53
			c0.33-0.39,0.66-0.78,0.99-1.18c0.22-0.27,0.45-0.53,0.68-0.81c0.11-0.14,0.21-0.28,0.32-0.42c1.16-1.45,2.3-2.93,3.39-4.45
			c0.06-0.08,0.13-0.16,0.19-0.25c0.11-0.16,0.22-0.33,0.33-0.49c1.02-1.45,2.01-2.93,2.96-4.44c0.06-0.1,0.13-0.19,0.19-0.28
			c0.02-0.03,0.04-0.07,0.06-0.1c0.97-1.55,1.88-3.14,2.77-4.74c0.1-0.18,0.21-0.35,0.31-0.53c0.15-0.29,0.3-0.58,0.45-0.86
			c0.2-0.38,0.4-0.76,0.6-1.15c0.36-0.7,0.71-1.4,1.06-2.11c0.18-0.36,0.35-0.71,0.52-1.08c0.07-0.14,0.14-0.28,0.21-0.42
			c0.33-0.7,0.64-1.41,0.96-2.12c0.11-0.24,0.22-0.48,0.32-0.72c0.45-1.04,0.89-2.08,1.3-3.14c0.02-0.06,0.04-0.12,0.07-0.17
			c0.13-0.34,0.26-0.69,0.39-1.04c0.3-0.8,0.61-1.6,0.89-2.41c0.16-0.44,0.3-0.89,0.45-1.33c0.17-0.51,0.36-1.02,0.52-1.54
			c0.06-0.2,0.12-0.4,0.18-0.6c0.18-0.58,0.35-1.16,0.53-1.74c0.19-0.65,0.39-1.31,0.57-1.96c0.16-0.59,0.31-1.17,0.47-1.76
			c0.11-0.41,0.23-0.82,0.33-1.24c0.05-0.19,0.08-0.38,0.12-0.56c0.38-1.59,0.74-3.18,1.04-4.8c0.22-1.15,0.42-2.3,0.6-3.44
			c0.02-0.1,0.03-0.19,0.04-0.29c0.04-0.24,0.07-0.49,0.1-0.73C456.83,215.45,456.96,214.51,457.07,213.57z"/>
	</g>
	<g>
		<g class="st18">
			<defs>
				<path id="SVGID_17_" class="st18" d="M27.71,252.16l-11.41-4.05c0.3,0.11,0.61,0.2,0.93,0.27l11.41,4.05
					C28.32,252.36,28.01,252.27,27.71,252.16z"/>
			</defs>
			<clipPath id="SVGID_18_">
				<use xlink:href="#SVGID_17_"  style="overflow:visible;"/>
			</clipPath>
			<path class="st19" d="M17.23,248.38l11.41,4.05c-0.32-0.07-0.63-0.17-0.93-0.27l-11.41-4.05
				C16.6,248.21,16.91,248.31,17.23,248.38"/>
		</g>
		<polygon class="st20" points="39.46,253.62 50.87,257.67 28.64,252.43 17.23,248.38 		"/>
		<polygon class="st20" points="65.79,259.82 77.2,263.87 42.67,289.3 31.26,285.25 		"/>
		<linearGradient id="SVGID_19_" gradientUnits="userSpaceOnUse" x1="78.5641" y1="139.1582" x2="158.5137" y2="310.6105">
			<stop  offset="0.2615" style="stop-color:#A3FF76"/>
			<stop  offset="1" style="stop-color:#00DB43"/>
		</linearGradient>
		<path class="st21" d="M219.84,201.39c5.23,1.23,8.26,6.95,6.75,12.77l-17.68,68.21c-1.51,5.82-6.98,9.53-12.21,8.3L65.79,259.82
			l-34.53,25.43l8.2-31.63l-22.23-5.24c-5.23-1.23-8.25-6.94-6.74-12.76l17.68-68.21c1.51-5.82,6.97-9.53,12.2-8.3L219.84,201.39z
			 M186.9,236.37c2.1,0.49,4.29-1,4.89-3.33c0.6-2.33-0.6-4.62-2.7-5.12L54.61,196.25c-2.1-0.49-4.29,1-4.89,3.33
			c-0.6,2.33,0.6,4.62,2.7,5.12L186.9,236.37 M135.94,242.19c2.1,0.49,4.29-1,4.89-3.33c0.6-2.33-0.6-4.62-2.7-5.12l-87.87-20.7
			c-2.1-0.49-4.29,1-4.89,3.33c-0.6,2.33,0.6,4.62,2.7,5.12L135.94,242.19"/>
		<path class="st22" d="M138.13,233.74c2.1,0.49,3.31,2.78,2.7,5.12c-0.6,2.33-2.79,3.82-4.89,3.33l-87.87-20.7
			c-2.1-0.49-3.31-2.78-2.7-5.12c0.6-2.33,2.79-3.82,4.89-3.33L138.13,233.74z"/>
		<path class="st22" d="M189.09,227.93c2.1,0.49,3.31,2.78,2.7,5.12c-0.6,2.33-2.79,3.82-4.89,3.33L52.42,204.69
			c-2.1-0.49-3.31-2.78-2.7-5.12c0.6-2.33,2.79-3.82,4.89-3.33L189.09,227.93z"/>
		<linearGradient id="SVGID_20_" gradientUnits="userSpaceOnUse" x1="111.6627" y1="305.6902" x2="222.5056" y2="194.8473">
			<stop  offset="0" style="stop-color:#009028"/>
			<stop  offset="1" style="stop-color:#39C646"/>
		</linearGradient>
		<path class="st23" d="M238.35,214.38c-0.01-0.17-0.03-0.35-0.05-0.52c-0.02-0.16-0.04-0.31-0.06-0.46
			c-0.03-0.17-0.06-0.34-0.1-0.5c-0.03-0.15-0.06-0.3-0.1-0.45c-0.04-0.17-0.09-0.33-0.14-0.49c-0.04-0.14-0.09-0.29-0.14-0.43
			c-0.06-0.16-0.12-0.31-0.18-0.47c-0.04-0.1-0.07-0.2-0.11-0.29c-0.01-0.03-0.03-0.05-0.04-0.08c-0.17-0.38-0.37-0.75-0.58-1.1
			c-0.02-0.03-0.03-0.06-0.04-0.08c-0.05-0.08-0.11-0.15-0.16-0.22c-0.11-0.16-0.22-0.32-0.33-0.48c-0.03-0.04-0.06-0.09-0.09-0.13
			c-0.06-0.08-0.13-0.15-0.19-0.23c-0.09-0.1-0.17-0.2-0.26-0.3c-0.04-0.04-0.07-0.08-0.1-0.12c-0.09-0.09-0.18-0.18-0.27-0.27
			c-0.07-0.07-0.13-0.14-0.21-0.2c-0.02-0.02-0.04-0.04-0.06-0.06c-0.18-0.16-0.36-0.31-0.55-0.46c0,0-0.01,0-0.01-0.01
			c-0.02-0.01-0.03-0.02-0.05-0.04c-0.16-0.12-0.33-0.24-0.5-0.35c-0.04-0.03-0.08-0.05-0.13-0.08c-0.07-0.04-0.13-0.08-0.2-0.12
			c-0.08-0.05-0.16-0.1-0.25-0.15c-0.1-0.05-0.2-0.1-0.29-0.15c-0.07-0.03-0.13-0.07-0.2-0.1c-0.04-0.02-0.07-0.04-0.11-0.05
			c-0.21-0.09-0.42-0.18-0.64-0.26c-0.01,0-0.02-0.01-0.03-0.01l-9.1-3.23l-2.28-0.81c-0.01,0-0.02-0.01-0.03-0.01
			c0.27,0.09,0.52,0.21,0.78,0.32c0.07,0.03,0.13,0.07,0.2,0.1c0.19,0.09,0.37,0.19,0.54,0.3c0.07,0.04,0.14,0.08,0.2,0.12
			c0.21,0.13,0.42,0.28,0.62,0.43c0.02,0.01,0.03,0.02,0.05,0.04c0.22,0.17,0.42,0.34,0.62,0.53c0.07,0.07,0.14,0.13,0.21,0.2
			c0.13,0.13,0.26,0.26,0.38,0.39c0.09,0.1,0.17,0.2,0.26,0.3c0.1,0.12,0.19,0.24,0.29,0.36c0.12,0.15,0.23,0.31,0.33,0.48
			c0.07,0.1,0.13,0.2,0.2,0.3c0.21,0.35,0.41,0.72,0.58,1.1c0.06,0.12,0.11,0.25,0.16,0.38c0.06,0.15,0.12,0.31,0.18,0.47
			c0.05,0.14,0.09,0.29,0.14,0.43c0.05,0.16,0.1,0.32,0.14,0.49c0.04,0.15,0.07,0.3,0.1,0.45c0.03,0.17,0.07,0.33,0.1,0.5
			c0.02,0.15,0.04,0.31,0.06,0.46c0.02,0.17,0.04,0.34,0.05,0.52c0.01,0.12,0.01,0.25,0.02,0.38c0.01,0.39,0.01,0.78-0.01,1.18
			c0,0.06,0,0.12-0.01,0.17c-0.02,0.28-0.06,0.55-0.1,0.83c-0.01,0.08-0.02,0.15-0.03,0.23c-0.01,0.05-0.02,0.1-0.03,0.14
			c-0.05,0.3-0.11,0.59-0.19,0.89l-17.68,68.21c-0.08,0.32-0.18,0.63-0.29,0.93c-0.03,0.09-0.06,0.18-0.1,0.27
			c-0.1,0.27-0.21,0.53-0.32,0.79c-0.02,0.04-0.03,0.08-0.05,0.11c-0.13,0.29-0.28,0.57-0.44,0.84c-0.04,0.07-0.08,0.14-0.13,0.22
			c-0.13,0.22-0.26,0.43-0.4,0.63c-0.04,0.06-0.09,0.13-0.13,0.19c-0.18,0.26-0.38,0.51-0.58,0.75c-0.04,0.05-0.09,0.09-0.13,0.14
			c-0.17,0.19-0.34,0.38-0.51,0.56c-0.11,0.11-0.22,0.21-0.33,0.31c-0.13,0.12-0.26,0.24-0.39,0.35c-0.23,0.19-0.47,0.38-0.71,0.55
			c-0.06,0.04-0.12,0.09-0.18,0.13c-0.15,0.1-0.31,0.19-0.46,0.29c-0.13,0.08-0.26,0.17-0.39,0.24c-0.16,0.09-0.33,0.16-0.49,0.24
			c-0.13,0.06-0.26,0.14-0.4,0.19c-0.17,0.07-0.34,0.13-0.52,0.2c-0.14,0.05-0.27,0.11-0.41,0.15c-0.18,0.06-0.36,0.1-0.54,0.14
			c-0.14,0.04-0.27,0.08-0.41,0.11c-0.18,0.04-0.37,0.06-0.56,0.09c-0.14,0.02-0.27,0.05-0.41,0.06c-0.2,0.02-0.4,0.02-0.59,0.03
			c-0.13,0-0.26,0.02-0.39,0.02c-0.23,0-0.45-0.02-0.68-0.04c-0.1-0.01-0.2-0.01-0.31-0.02c-0.33-0.04-0.66-0.1-0.99-0.17
			L65.79,259.82l11.41,4.05l130.91,30.84l0,0c0.33,0.08,0.66,0.14,0.99,0.17c0.1,0.01,0.2,0.01,0.31,0.02
			c0.23,0.02,0.45,0.04,0.68,0.04c0.13,0,0.26-0.01,0.39-0.02c0.2-0.01,0.4-0.01,0.59-0.03c0.14-0.01,0.27-0.04,0.41-0.06
			c0.19-0.03,0.37-0.05,0.56-0.09c0.14-0.03,0.27-0.07,0.4-0.11c0.18-0.05,0.37-0.09,0.54-0.15c0.14-0.04,0.27-0.1,0.41-0.15
			c0.17-0.06,0.34-0.12,0.51-0.19c0.14-0.06,0.27-0.13,0.41-0.2c0.16-0.08,0.33-0.15,0.48-0.24c0.14-0.08,0.27-0.16,0.4-0.25
			c0.15-0.09,0.3-0.18,0.45-0.28c0.01-0.01,0.02-0.01,0.03-0.02c0.05-0.04,0.1-0.08,0.15-0.12c0.24-0.17,0.48-0.35,0.71-0.55
			c0.03-0.02,0.06-0.04,0.09-0.07c0.1-0.09,0.2-0.19,0.3-0.28c0.11-0.1,0.23-0.21,0.34-0.32c0.03-0.03,0.06-0.05,0.08-0.08
			c0.15-0.15,0.29-0.31,0.43-0.47c0.04-0.05,0.09-0.1,0.13-0.15c0.01-0.01,0.01-0.02,0.02-0.02c0.17-0.2,0.33-0.41,0.49-0.63
			c0.02-0.03,0.04-0.06,0.06-0.09c0.05-0.06,0.09-0.13,0.13-0.2c0.08-0.11,0.16-0.22,0.23-0.34c0.06-0.09,0.11-0.19,0.17-0.28
			c0.04-0.07,0.09-0.14,0.13-0.22c0.03-0.05,0.06-0.09,0.08-0.14c0.12-0.22,0.23-0.44,0.34-0.67c0.01-0.01,0.01-0.02,0.02-0.04
			c0.02-0.04,0.03-0.08,0.05-0.11c0.08-0.18,0.16-0.36,0.24-0.55c0.03-0.08,0.06-0.16,0.09-0.24c0.03-0.09,0.06-0.18,0.1-0.27
			c0.03-0.08,0.06-0.16,0.09-0.24c0.07-0.23,0.14-0.46,0.2-0.69L238,218.21c0.01-0.04,0.02-0.09,0.03-0.13
			c0.06-0.25,0.11-0.5,0.16-0.75c0.01-0.05,0.02-0.1,0.03-0.16c0,0,0-0.01,0-0.01c0.01-0.07,0.01-0.13,0.02-0.2
			c0.04-0.28,0.08-0.56,0.1-0.84c0-0.02,0-0.03,0.01-0.05c0-0.04,0-0.09,0-0.13c0.03-0.4,0.03-0.79,0.01-1.18
			c0-0.06,0.01-0.12,0-0.18C238.37,214.51,238.36,214.45,238.35,214.38z"/>
	</g>
</g>
</svg>
