<?xml version="1.0" encoding="utf-8"?>
<!-- Generator: Adobe Illustrator 25.2.1, SVG Export Plug-In . SVG Version: 6.00 Build 0)  -->
<svg version="1.1" id="Capa_1" xmlns="http://www.w3.org/2000/svg" xmlns:xlink="http://www.w3.org/1999/xlink" x="0px" y="0px"
	 viewBox="0 0 469.36 541.36" style="enable-background:new 0 0 469.36 541.36;" xml:space="preserve">
<style type="text/css">
	.st0{enable-background:new    ;}
	.st1{fill:url(#SVGID_1_);}
	.st2{fill:#8B8B8B;}
	.st3{fill:url(#SVGID_2_);}
	.st4{fill:url(#SVGID_3_);}
	.st5{fill:url(#SVGID_4_);}
	.st6{fill:#688EFE;}
	.st7{fill:url(#SVGID_5_);}
	.st8{clip-path:url(#SVGID_7_);fill:url(#SVGID_8_);}
	.st9{clip-path:url(#SVGID_10_);fill:url(#SVGID_11_);}
	.st10{fill:url(#SVGID_12_);}
	.st11{fill:#FFFFFF;}
	.st12{fill:url(#SVGID_13_);}
	.st13{fill:url(#SVGID_14_);}
	.st14{fill:#0086BB;}
	.st15{fill:url(#SVGID_15_);}
	.st16{fill:#FDFDFD;}
	.st17{fill:url(#SVGID_16_);}
</style>
<g>
	<g>
		<g>
			<g class="st0">
				<g>
					<linearGradient id="SVGID_1_" gradientUnits="userSpaceOnUse" x1="133.6326" y1="3.2882" x2="369.5724" y2="509.2628">
						<stop  offset="0" style="stop-color:#FFFFFF"/>
						<stop  offset="1" style="stop-color:#BFD4FF"/>
					</linearGradient>
					<path class="st1" d="M317.94,13.7c2.06-0.19,4.18,0.17,6.25,0.99c2.07,0.82,4.09,2.1,5.95,3.75c1.86,1.64,3.56,3.65,4.99,5.91
						c1.43,2.27,2.59,4.8,3.37,7.5l120.73,416.5c0.8,2.77,1.16,5.49,1.11,8.04c-0.05,2.54-0.49,4.91-1.29,6.98
						c-0.8,2.07-1.96,3.84-3.43,5.19c-1.47,1.35-3.24,2.28-5.28,2.66l-254.14,47.38c-2.25,0.42-4.55,0.22-6.81-0.49
						c-2.25-0.71-4.45-1.95-6.47-3.6c-2.02-1.65-3.86-3.72-5.4-6.12c-1.54-2.39-2.78-5.11-3.61-8.04L50.44,60.11
						c-0.8-2.85-1.1-5.62-0.96-8.17c0.14-2.55,0.73-4.89,1.69-6.9c0.97-2.01,2.32-3.69,4-4.92c1.68-1.23,3.68-2.01,5.94-2.22
						L317.94,13.7z M398.38,312.73L335.36,94.83L91.33,121.7l64.23,228.38L398.38,312.73 M358.26,409.76
						c0.65-0.11,1.22-0.39,1.69-0.81c0.47-0.42,0.85-0.96,1.11-1.61c0.26-0.64,0.41-1.38,0.43-2.18c0.02-0.79-0.09-1.65-0.34-2.52
						c-0.25-0.87-0.62-1.68-1.07-2.39c-0.45-0.71-0.99-1.33-1.58-1.83c-0.59-0.5-1.23-0.87-1.88-1.1c-0.65-0.22-1.32-0.3-1.98-0.19
						l-172.39,29.09c-0.69,0.12-1.31,0.41-1.81,0.84c-0.51,0.43-0.92,1-1.21,1.67c-0.29,0.67-0.46,1.43-0.5,2.26
						c-0.04,0.82,0.07,1.71,0.32,2.61c0.25,0.9,0.64,1.74,1.11,2.48c0.47,0.74,1.04,1.38,1.66,1.89c0.62,0.51,1.3,0.9,1.99,1.13
						c0.69,0.23,1.41,0.3,2.1,0.18L358.26,409.76 M307.04,445.2c0.66-0.12,1.25-0.41,1.73-0.83c0.48-0.42,0.87-0.98,1.14-1.64
						c0.27-0.65,0.43-1.41,0.45-2.21c0.02-0.81-0.08-1.67-0.33-2.55c-0.25-0.88-0.63-1.7-1.09-2.42c-0.46-0.72-1.01-1.35-1.61-1.85
						c-0.6-0.5-1.25-0.88-1.92-1.1c-0.67-0.22-1.35-0.29-2.02-0.18l-113.84,19.79c-0.69,0.12-1.3,0.42-1.81,0.85
						c-0.51,0.44-0.92,1.01-1.2,1.68c-0.29,0.67-0.46,1.44-0.49,2.27c-0.03,0.83,0.07,1.71,0.32,2.62c0.25,0.9,0.64,1.74,1.11,2.48
						s1.04,1.38,1.66,1.89c0.62,0.51,1.3,0.9,1.99,1.12c0.69,0.22,1.41,0.29,2.1,0.17L307.04,445.2 M164.72,374.58
						c-0.47,1.46-0.65,3.04-0.56,4.64c0.08,1.6,0.42,3.23,0.99,4.79c0.57,1.56,1.36,3.05,2.34,4.39c0.98,1.33,2.16,2.5,3.49,3.42
						l19.24,13.3l10.32-18.09c0.71-1.24,1.14-2.66,1.32-4.17c0.17-1.51,0.09-3.11-0.24-4.69c-0.32-1.59-0.89-3.17-1.67-4.65
						c-0.78-1.48-1.79-2.86-2.99-4.05c-0.68-0.67-1.39-1.24-2.11-1.72c-0.72-0.47-1.46-0.85-2.2-1.13c-0.74-0.28-1.48-0.46-2.2-0.55
						c-0.73-0.09-1.44-0.07-2.13,0.03c-0.53,0.08-1.04,0.22-1.54,0.42c-0.49,0.2-0.97,0.45-1.41,0.77
						c-0.44,0.31-0.86,0.68-1.25,1.11c-0.38,0.43-0.73,0.91-1.04,1.45l-1.88,3.25l-3.48-2.41c-0.58-0.4-1.16-0.74-1.74-1.01
						c-0.58-0.27-1.17-0.49-1.74-0.64s-1.15-0.24-1.71-0.27c-0.56-0.03-1.11-0.01-1.64,0.08c-0.69,0.11-1.36,0.32-1.98,0.62
						c-0.62,0.3-1.21,0.69-1.74,1.17c-0.53,0.48-1,1.05-1.41,1.71C165.32,373.01,164.98,373.75,164.72,374.58 M123.63,73.13
						c-0.69,0.07-1.3,0.31-1.8,0.7c-0.51,0.38-0.91,0.9-1.2,1.52c-0.29,0.62-0.46,1.34-0.5,2.13c-0.04,0.78,0.06,1.63,0.31,2.51
						c0.25,0.88,0.62,1.7,1.09,2.43c0.47,0.73,1.03,1.38,1.64,1.91c0.61,0.53,1.28,0.94,1.97,1.19c0.69,0.26,1.39,0.37,2.08,0.3
						l83.55-8.71c0.67-0.07,1.25-0.31,1.74-0.69c0.49-0.38,0.88-0.89,1.15-1.5c0.28-0.61,0.44-1.32,0.47-2.09
						c0.03-0.77-0.07-1.6-0.31-2.47c-0.25-0.86-0.62-1.67-1.07-2.39c-0.46-0.72-1-1.36-1.6-1.87c-0.6-0.52-1.25-0.92-1.92-1.18
						c-0.67-0.26-1.35-0.37-2.02-0.3L123.63,73.13 M413.69,368.24l-10.42-36.03l-26.81,4.23l10.44,36.22l11.21-9.86L413.69,368.24
						 M89.07,64.34c-1.86,0.19-3.5,0.84-4.87,1.86c-1.37,1.02-2.48,2.41-3.26,4.07c-0.79,1.66-1.26,3.6-1.37,5.7
						c-0.11,2.11,0.14,4.39,0.8,6.74c0.66,2.35,1.67,4.56,2.93,6.52c1.26,1.97,2.76,3.7,4.42,5.12c1.66,1.41,3.46,2.51,5.32,3.2
						c1.85,0.69,3.76,0.98,5.62,0.79c1.86-0.2,3.49-0.86,4.85-1.89c1.36-1.03,2.46-2.43,3.24-4.09c0.78-1.66,1.24-3.6,1.35-5.7
						c0.1-2.1-0.15-4.37-0.81-6.71c-0.66-2.34-1.66-4.53-2.91-6.49c-1.25-1.96-2.75-3.69-4.39-5.1c-1.65-1.41-3.44-2.51-5.29-3.21
						C92.83,64.45,90.93,64.16,89.07,64.34"/>
				</g>
				<g>
					<polygon class="st2" points="196.21,518.61 170.17,529.24 424.05,481.63 450.34,471.22 					"/>
					<linearGradient id="SVGID_2_" gradientUnits="userSpaceOnUse" x1="3.5344" y1="63.9747" x2="212.0807" y2="511.2036">
						<stop  offset="0" style="stop-color:#BFD4FF"/>
						<stop  offset="0.2623" style="stop-color:#AFC5F6"/>
						<stop  offset="0.7702" style="stop-color:#879CDE"/>
						<stop  offset="1" style="stop-color:#7288D2"/>
					</linearGradient>
					<path class="st3" d="M194.69,518.78c-0.14,0.01-0.29,0.01-0.44,0.02c-0.4,0.01-0.79,0.01-1.19-0.01
						c-0.12-0.01-0.25-0.01-0.37-0.02c-0.49-0.04-0.99-0.11-1.48-0.2c-0.73-0.14-1.45-0.34-2.16-0.59
						c-0.18-0.06-0.36-0.14-0.55-0.21c-0.59-0.22-1.17-0.48-1.75-0.77c-0.15-0.08-0.3-0.14-0.45-0.22c-0.69-0.37-1.37-0.8-2.03-1.26
						c-0.15-0.1-0.29-0.22-0.44-0.33c-0.54-0.4-1.07-0.83-1.59-1.29c-0.16-0.14-0.32-0.28-0.48-0.42c-0.62-0.58-1.22-1.19-1.8-1.85
						c-0.09-0.1-0.18-0.22-0.27-0.33c-0.49-0.58-0.96-1.19-1.41-1.82c-0.16-0.22-0.31-0.44-0.46-0.66
						c-0.25-0.37-0.48-0.74-0.71-1.13c-0.16-0.27-0.33-0.54-0.48-0.81c-0.23-0.41-0.44-0.83-0.65-1.25
						c-0.14-0.27-0.28-0.54-0.4-0.81c-0.22-0.47-0.42-0.96-0.61-1.45c-0.1-0.24-0.2-0.48-0.3-0.73c-0.27-0.74-0.52-1.5-0.74-2.28
						L50.44,60.11c-0.25-0.87-0.43-1.74-0.58-2.59c-0.03-0.16-0.06-0.31-0.08-0.47c-0.13-0.82-0.22-1.62-0.27-2.41
						c-0.01-0.15-0.01-0.3-0.02-0.45c-0.02-0.49-0.01-0.96,0-1.44c0.01-0.63,0.05-1.25,0.11-1.86c0.04-0.35,0.07-0.69,0.13-1.03
						c0.1-0.62,0.24-1.22,0.39-1.81c0.07-0.28,0.13-0.57,0.22-0.83c0.26-0.81,0.56-1.59,0.92-2.32c0.01-0.02,0.02-0.05,0.03-0.07
						c0.38-0.75,0.82-1.44,1.3-2.08c0.36-0.48,0.74-0.93,1.15-1.35c0.22-0.23,0.45-0.45,0.69-0.66c0.01-0.01,0.02-0.02,0.03-0.02
						c0.28-0.25,0.58-0.47,0.89-0.69c0.08-0.05,0.15-0.11,0.23-0.16c0.31-0.21,0.63-0.41,0.96-0.59c0,0,0,0,0,0L31.7,52.63
						c-0.25,0.13-0.49,0.28-0.73,0.43c-0.08,0.05-0.16,0.11-0.24,0.16c-0.08,0.05-0.15,0.1-0.23,0.16c-0.07,0.05-0.15,0.1-0.23,0.16
						c-0.23,0.17-0.44,0.34-0.66,0.53c0,0,0,0-0.01,0.01c-0.01,0.01-0.02,0.02-0.03,0.02c-0.2,0.17-0.4,0.35-0.59,0.54
						c-0.04,0.03-0.06,0.08-0.1,0.11c-0.37,0.37-0.73,0.76-1.05,1.19c-0.04,0.05-0.06,0.11-0.1,0.16c-0.48,0.64-0.92,1.33-1.3,2.07
						c0,0,0,0.01,0,0.01c-0.01,0.02-0.02,0.05-0.03,0.08c-0.36,0.72-0.66,1.5-0.92,2.3c-0.02,0.07-0.06,0.13-0.08,0.2
						c-0.06,0.2-0.08,0.43-0.14,0.64c-0.11,0.41-0.24,0.8-0.32,1.23c-0.04,0.19-0.04,0.39-0.07,0.57c-0.05,0.34-0.09,0.68-0.13,1.03
						c-0.07,0.6-0.1,1.22-0.12,1.85c0,0.21-0.04,0.41-0.04,0.63c0,0.26,0.02,0.53,0.03,0.8c0,0.09-0.01,0.18,0,0.27
						c0,0.06,0.02,0.12,0.02,0.18c0.05,0.79,0.14,1.58,0.27,2.4c0.02,0.15,0.06,0.31,0.08,0.47c0.15,0.85,0.33,1.71,0.58,2.58
						l122.38,437.74c0.22,0.77,0.46,1.52,0.74,2.26c0.01,0.04,0.02,0.07,0.04,0.11c0.08,0.21,0.18,0.41,0.26,0.61
						c0.19,0.49,0.39,0.97,0.61,1.44c0.03,0.07,0.05,0.14,0.09,0.2c0.1,0.21,0.21,0.4,0.32,0.61c0.21,0.42,0.42,0.84,0.65,1.24
						c0.05,0.09,0.1,0.19,0.15,0.28c0.1,0.18,0.22,0.35,0.33,0.52c0.14,0.23,0.27,0.48,0.42,0.71c0.09,0.14,0.19,0.27,0.29,0.41
						c0.08,0.11,0.14,0.24,0.22,0.35c0.08,0.11,0.16,0.2,0.24,0.31c0.45,0.63,0.91,1.23,1.4,1.81c0.09,0.11,0.17,0.22,0.26,0.32
						c0.57,0.65,1.17,1.26,1.79,1.83c0.06,0.06,0.11,0.12,0.17,0.18c0.1,0.09,0.2,0.16,0.3,0.25c0.23,0.21,0.46,0.43,0.7,0.62
						c0.29,0.24,0.59,0.44,0.89,0.66c0.15,0.11,0.29,0.22,0.44,0.33c0.66,0.46,1.34,0.88,2.03,1.25c0.05,0.02,0.09,0.06,0.14,0.08
						c0.1,0.06,0.21,0.09,0.32,0.14c0.57,0.29,1.15,0.54,1.74,0.77c0.18,0.07,0.36,0.14,0.55,0.2c0.12,0.04,0.24,0.1,0.36,0.13
						c0.6,0.19,1.2,0.33,1.8,0.45c0.03,0,0.05,0.02,0.08,0.02c0.47,0.08,0.94,0.14,1.4,0.18c0.12,0.01,0.25,0.01,0.37,0.02
						c0.4,0.02,0.8,0.03,1.19,0.01c0.14-0.01,0.29-0.01,0.43-0.02c0.51-0.03,1.01-0.09,1.52-0.18l26.04-10.63
						C195.71,518.7,195.2,518.75,194.69,518.78z"/>
				</g>
			</g>
		</g>
		<g>
			<linearGradient id="SVGID_3_" gradientUnits="userSpaceOnUse" x1="179.34" y1="80.6557" x2="307.3531" y2="355.1807">
				<stop  offset="0" style="stop-color:#FFAA28"/>
				<stop  offset="0.0949" style="stop-color:#FF983A"/>
				<stop  offset="0.285" style="stop-color:#FF6C68"/>
				<stop  offset="0.5409" style="stop-color:#FF28B0"/>
				<stop  offset="1" style="stop-color:#A900FF"/>
			</linearGradient>
			<polygon class="st4" points="335.36,94.83 91.33,121.7 155.56,350.07 398.38,312.73 			"/>
			<linearGradient id="SVGID_4_" gradientUnits="userSpaceOnUse" x1="86.226" y1="65.0384" x2="101.4316" y2="97.6469">
				<stop  offset="0" style="stop-color:#FF4C92"/>
				<stop  offset="1" style="stop-color:#E42176"/>
			</linearGradient>
			<path class="st5" d="M98.65,98.34c1.86-0.2,3.49-0.86,4.85-1.89c1.36-1.03,2.46-2.43,3.24-4.09c0.78-1.66,1.24-3.6,1.35-5.7
				c0.1-2.1-0.15-4.37-0.81-6.71c-0.66-2.34-1.66-4.53-2.91-6.49c-1.25-1.96-2.75-3.69-4.39-5.1c-1.65-1.41-3.44-2.51-5.29-3.21
				c-1.85-0.7-3.75-1-5.61-0.81c-1.86,0.19-3.5,0.84-4.87,1.86c-1.37,1.02-2.48,2.41-3.26,4.07c-0.79,1.66-1.26,3.6-1.37,5.7
				c-0.11,2.11,0.14,4.39,0.8,6.74c0.66,2.35,1.67,4.56,2.93,6.52c1.26,1.97,2.76,3.7,4.42,5.12c1.66,1.41,3.46,2.51,5.32,3.2
				C94.89,98.25,96.79,98.54,98.65,98.34z"/>
			<path class="st6" d="M121.51,82.41c0.47,0.73,1.03,1.38,1.64,1.91c0.61,0.53,1.28,0.94,1.97,1.19c0.69,0.26,1.39,0.37,2.08,0.3
				l83.55-8.71c0.67-0.07,1.25-0.31,1.74-0.69c0.49-0.38,0.88-0.89,1.15-1.5c0.28-0.61,0.44-1.32,0.47-2.09
				c0.03-0.77-0.07-1.6-0.31-2.47c-0.25-0.86-0.62-1.67-1.07-2.39c-0.46-0.72-1-1.36-1.6-1.87c-0.6-0.52-1.25-0.92-1.92-1.18
				s-1.35-0.37-2.02-0.3l-83.58,8.51c-0.69,0.07-1.3,0.31-1.8,0.7c-0.51,0.38-0.91,0.9-1.2,1.52c-0.29,0.62-0.46,1.34-0.5,2.13
				c-0.04,0.78,0.06,1.63,0.3,2.51C120.67,80.86,121.05,81.68,121.51,82.41z"/>
			<linearGradient id="SVGID_5_" gradientUnits="userSpaceOnUse" x1="176.5248" y1="365.9023" x2="193.9909" y2="403.3586">
				<stop  offset="0" style="stop-color:#FF4C92"/>
				<stop  offset="1" style="stop-color:#E42176"/>
			</linearGradient>
			<path class="st7" d="M200.53,387.03c0.71-1.24,1.14-2.66,1.32-4.17c0.17-1.51,0.09-3.11-0.24-4.69
				c-0.32-1.59-0.89-3.17-1.67-4.65c-0.78-1.48-1.79-2.86-2.99-4.05c-0.68-0.67-1.39-1.24-2.11-1.72c-0.72-0.48-1.46-0.85-2.2-1.13
				c-0.74-0.28-1.48-0.46-2.2-0.55c-0.73-0.09-1.44-0.07-2.13,0.03c-0.53,0.08-1.04,0.22-1.54,0.42c-0.49,0.2-0.97,0.45-1.41,0.77
				c-0.44,0.31-0.86,0.68-1.25,1.11c-0.38,0.43-0.73,0.91-1.04,1.45l-1.88,3.25l-3.48-2.41c-0.58-0.4-1.16-0.74-1.74-1.01
				c-0.58-0.27-1.17-0.49-1.74-0.64c-0.58-0.15-1.15-0.24-1.71-0.27c-0.56-0.03-1.11-0.01-1.64,0.08c-0.69,0.11-1.36,0.32-1.98,0.62
				c-0.62,0.3-1.21,0.69-1.74,1.17c-0.53,0.48-1.01,1.05-1.41,1.71c-0.41,0.66-0.75,1.4-1.02,2.22c-0.47,1.46-0.65,3.04-0.56,4.64
				c0.08,1.6,0.42,3.23,0.99,4.79c0.57,1.56,1.36,3.05,2.34,4.39c0.98,1.33,2.16,2.5,3.49,3.42l19.24,13.3L200.53,387.03z"/>
			<polygon class="st6" points="403.27,332.21 376.45,336.44 386.9,372.66 398.11,362.79 413.69,368.24 			"/>
			<path class="st6" d="M360.07,400.25c-0.45-0.71-0.99-1.33-1.58-1.83c-0.59-0.5-1.23-0.87-1.88-1.1c-0.65-0.22-1.32-0.3-1.98-0.19
				l-172.39,29.09c-0.69,0.12-1.3,0.41-1.81,0.84c-0.51,0.43-0.92,1-1.21,1.67c-0.29,0.67-0.46,1.43-0.5,2.26
				c-0.03,0.82,0.07,1.71,0.32,2.61c0.25,0.9,0.64,1.74,1.11,2.48c0.47,0.74,1.04,1.38,1.66,1.89c0.62,0.51,1.3,0.9,1.99,1.13
				c0.7,0.23,1.41,0.3,2.1,0.18l172.34-29.52c0.65-0.11,1.22-0.39,1.69-0.81c0.47-0.42,0.85-0.96,1.11-1.61
				c0.26-0.64,0.41-1.38,0.43-2.18c0.02-0.79-0.09-1.65-0.34-2.52C360.9,401.77,360.53,400.97,360.07,400.25z"/>
			<path class="st6" d="M308.94,435.54c-0.46-0.72-1.01-1.35-1.61-1.85c-0.6-0.5-1.25-0.88-1.92-1.1c-0.67-0.22-1.35-0.29-2.02-0.18
				l-113.84,19.79c-0.69,0.12-1.3,0.42-1.81,0.85c-0.51,0.44-0.92,1.01-1.2,1.68c-0.29,0.67-0.46,1.44-0.49,2.27
				c-0.03,0.83,0.07,1.71,0.32,2.62c0.25,0.9,0.64,1.74,1.11,2.48c0.47,0.74,1.04,1.38,1.66,1.89c0.62,0.51,1.3,0.9,1.99,1.12
				s1.41,0.29,2.1,0.17l113.81-20.07c0.66-0.12,1.25-0.41,1.73-0.83c0.48-0.42,0.87-0.98,1.14-1.64c0.27-0.65,0.43-1.41,0.45-2.21
				c0.02-0.81-0.08-1.67-0.33-2.55C309.77,437.08,309.4,436.26,308.94,435.54z"/>
		</g>
	</g>
	<g>
		<g class="st0">
			<defs>
				<path id="SVGID_6_" class="st0" d="M150.76,327.49l-11.14,6.76c-8.85,5.37-19.25,8.5-30.78,8.79
					c-22.87,0.57-45.52-10.17-62.97-27.67L57,308.6c17.45,17.51,40.11,28.24,62.97,27.67C131.51,335.99,141.91,332.86,150.76,327.49
					z"/>
			</defs>
			<clipPath id="SVGID_7_">
				<use xlink:href="#SVGID_6_"  style="overflow:visible;"/>
			</clipPath>
			<linearGradient id="SVGID_8_" gradientUnits="userSpaceOnUse" x1="45.8642" y1="325.8293" x2="150.7569" y2="325.8293">
				<stop  offset="0" style="stop-color:#A9BEF3"/>
				<stop  offset="0.7297" style="stop-color:#8298DB"/>
				<stop  offset="1" style="stop-color:#7288D2"/>
			</linearGradient>
			<path class="st8" d="M150.76,327.49l-11.14,6.76c-8.85,5.37-19.25,8.5-30.78,8.79c-22.87,0.57-45.52-10.17-62.97-27.67L57,308.6
				c17.45,17.51,40.11,28.24,62.97,27.67C131.51,335.99,141.91,332.86,150.76,327.49"/>
		</g>
		<g class="st0">
			<defs>
				<path id="SVGID_9_" class="st0" d="M45.36,178.71l11.14-6.76c-23.72,14.39-36.31,44.86-29.73,79.69
					c4.16,22.04,15.29,41.99,30.23,56.97l-11.14,6.76c-14.94-14.98-26.07-34.93-30.23-56.97C9.05,223.57,21.64,193.1,45.36,178.71z"
					/>
			</defs>
			<clipPath id="SVGID_10_">
				<use xlink:href="#SVGID_9_"  style="overflow:visible;"/>
			</clipPath>
			<linearGradient id="SVGID_11_" gradientUnits="userSpaceOnUse" x1="21.664" y1="188.1915" x2="74.6953" y2="301.9175">
				<stop  offset="0" style="stop-color:#39C646"/>
				<stop  offset="1" style="stop-color:#009028"/>
			</linearGradient>
			<path class="st9" d="M57,308.6l-11.14,6.76c-14.94-14.98-26.07-34.93-30.23-56.97c-6.58-34.82,6.01-65.29,29.73-79.69l11.14-6.76
				c-23.72,14.39-36.31,44.86-29.73,79.69C30.93,273.68,42.06,293.62,57,308.6"/>
		</g>
		<linearGradient id="SVGID_12_" gradientUnits="userSpaceOnUse" x1="65.2825" y1="167.464" x2="136.0327" y2="319.1883">
			<stop  offset="0.2615" style="stop-color:#A3FF76"/>
			<stop  offset="1" style="stop-color:#00DB43"/>
		</linearGradient>
		<path class="st10" d="M87.29,163.16c42.46-1.06,84.19,36.84,93.22,84.65c3.78,20.02,1.22,38.6-6.15,53.51
			c-12.41-29.04-40.12-49.99-68.23-49.29C76.64,252.76,56.54,277.07,57,308.6c-14.94-14.98-26.07-34.93-30.23-56.97
			C17.74,203.82,44.83,164.21,87.29,163.16z M102.54,243.95c14.72-0.37,24.12-14.09,20.99-30.67
			c-3.13-16.57-17.61-29.72-32.32-29.35c-14.72,0.37-24.11,14.1-20.98,30.68S87.83,244.31,102.54,243.95"/>
		<g>
			<g>
				<path class="st11" d="M91.21,183.93c14.72-0.37,29.19,12.78,32.32,29.35c3.13,16.57-6.27,30.3-20.99,30.67
					c-14.72,0.37-29.18-12.77-32.31-29.34S76.49,184.29,91.21,183.93z"/>
				<path class="st11" d="M106.13,252.02c28.11-0.7,55.83,20.25,68.23,49.29c-10.22,20.7-29.71,34.34-54.38,34.96
					C97.11,336.84,74.45,326.11,57,308.6C56.54,277.07,76.64,252.76,106.13,252.02z"/>
			</g>
			<g>
				<linearGradient id="SVGID_13_" gradientUnits="userSpaceOnUse" x1="64.1831" y1="194.4679" x2="130.7435" y2="337.2071">
					<stop  offset="0" style="stop-color:#FFFFFF"/>
					<stop  offset="1" style="stop-color:#BFD4FF"/>
				</linearGradient>
				<path class="st12" d="M91.21,183.93c14.72-0.37,29.19,12.78,32.32,29.35c3.13,16.57-6.27,30.3-20.99,30.67
					c-14.72,0.37-29.18-12.77-32.31-29.34S76.49,184.29,91.21,183.93z"/>
				<linearGradient id="SVGID_14_" gradientUnits="userSpaceOnUse" x1="64.1831" y1="194.4679" x2="130.7435" y2="337.2071">
					<stop  offset="0" style="stop-color:#FFFFFF"/>
					<stop  offset="1" style="stop-color:#BFD4FF"/>
				</linearGradient>
				<path class="st13" d="M106.13,252.02c28.11-0.7,55.83,20.25,68.23,49.29c-10.22,20.7-29.71,34.34-54.38,34.96
					C97.11,336.84,74.45,326.11,57,308.6C56.54,277.07,76.64,252.76,106.13,252.02z"/>
			</g>
		</g>
	</g>
	<g>
		<path class="st14" d="M417.35,222.97l-118.87,15.67l-14.41,6.33l118.87-15.67c0.67-0.09,1.31-0.27,1.89-0.53l14.41-6.33
			C418.65,222.7,418.02,222.88,417.35,222.97z"/>
		<linearGradient id="SVGID_15_" gradientUnits="userSpaceOnUse" x1="296.5373" y1="127.5913" x2="354.7839" y2="252.5015">
			<stop  offset="0" style="stop-color:#2BFFFF"/>
			<stop  offset="1" style="stop-color:#3EBBE5"/>
		</linearGradient>
		<path class="st15" d="M396.93,135.64c4.75-0.63,9.69,3.49,11.02,9.18l15.59,66.7c1.33,5.69-1.45,10.82-6.2,11.45l-118.87,15.67
			l-16.68,34.08l-7.23-30.93l-20.19,2.66c-4.75,0.63-9.68-3.49-11.01-9.18l-15.59-66.7c-1.33-5.69,1.44-10.82,6.19-11.45
			L396.93,135.64z M385.72,177.74c1.9-0.25,3.02-2.3,2.48-4.58c-0.53-2.28-2.51-3.93-4.41-3.68l-122.11,16.1
			c-1.9,0.25-3.01,2.3-2.48,4.58c0.53,2.28,2.51,3.93,4.41,3.67L385.72,177.74 M347.23,199.75c1.9-0.25,3.02-2.3,2.48-4.58
			c-0.53-2.28-2.51-3.93-4.41-3.68L265.51,202c-1.9,0.25-3.01,2.3-2.48,4.58c0.53,2.28,2.51,3.93,4.41,3.68L347.23,199.75"/>
		<path class="st16" d="M383.79,169.48c1.9-0.25,3.88,1.39,4.41,3.68c0.53,2.28-0.58,4.33-2.48,4.58l-122.11,16.1
			c-1.9,0.25-3.88-1.39-4.41-3.68c-0.53-2.28,0.58-4.33,2.48-4.58L383.79,169.48z"/>
		<path class="st16" d="M345.3,191.49c1.9-0.25,3.88,1.39,4.41,3.68c0.53,2.28-0.58,4.33-2.48,4.58l-79.79,10.52
			c-1.9,0.25-3.88-1.39-4.41-3.68c-0.53-2.28,0.58-4.33,2.48-4.58L345.3,191.49z"/>
		<linearGradient id="SVGID_16_" gradientUnits="userSpaceOnUse" x1="215.7818" y1="164.8603" x2="268.8848" y2="278.74">
			<stop  offset="0" style="stop-color:#3EBBE5"/>
			<stop  offset="1" style="stop-color:#0086BB"/>
		</linearGradient>
		<path class="st17" d="M274.57,241.79l-20.19,2.66l0,0c-4.75,0.63-9.68-3.49-11.01-9.18v0l-15.59-66.7
			c-1.14-4.89,0.73-9.36,4.29-10.92l-14.41,6.33c-3.56,1.56-5.44,6.03-4.29,10.92l15.59,66.7l0,0c1.33,5.69,6.26,9.81,11.01,9.18
			l0,0l20.19-2.66l7.23,30.93l14.41-6.33L274.57,241.79z"/>
	</g>
</g>
</svg>
