<?xml version="1.0" encoding="utf-8"?>
<!-- Generator: Adobe Illustrator 25.2.1, SVG Export Plug-In . SVG Version: 6.00 Build 0)  -->
<svg version="1.1" id="Capa_1" xmlns="http://www.w3.org/2000/svg" xmlns:xlink="http://www.w3.org/1999/xlink" x="0px" y="0px"
	 viewBox="0 0 211.69 206.08" style="enable-background:new 0 0 211.69 206.08;" xml:space="preserve">
<style type="text/css">
	.st0{fill-rule:evenodd;clip-rule:evenodd;fill:#FFDD00;}
</style>
<g>
	<g>
		<path class="st0" d="M107.62,173.54c-14.68,0-28.37-4.41-39.79-11.96l-27.8,8.9l9.03-26.86c-8.66-11.92-13.77-26.57-13.77-42.41
			c0-39.89,32.45-72.34,72.32-72.34c39.89,0,72.34,32.45,72.34,72.34C179.96,141.09,147.52,173.54,107.62,173.54L107.62,173.54z
			 M107.62,14.31c-47.98,0-86.89,38.9-86.89,86.89c0,16.42,4.56,31.77,12.47,44.87l-15.69,46.62l48.11-15.4
			c12.45,6.88,26.77,10.81,42,10.81c48,0,86.9-38.91,86.9-86.89C194.52,53.21,155.62,14.31,107.62,14.31L107.62,14.31z"/>
	</g>
	<path class="st0" d="M148.37,120.95c-2.18-1.19-12.88-6.97-14.88-7.78c-2-0.82-3.47-1.24-5.04,0.93c-1.56,2.16-6,6.99-7.34,8.43
		c-1.35,1.44-2.65,1.57-4.83,0.37c-2.17-1.19-9.23-3.8-17.42-11.68c-6.37-6.12-10.55-13.55-11.76-15.82
		c-1.22-2.27-0.01-3.43,1.14-4.49c1.04-0.96,2.32-2.51,3.48-3.76c1.15-1.25,1.56-2.16,2.35-3.61c0.8-1.45,0.47-2.76-0.04-3.89
		c-0.51-1.13-4.54-12.21-6.22-16.72c-1.68-4.51-3.56-3.84-4.85-3.89c-1.29-0.04-2.77-0.29-4.24-0.34c-1.48-0.05-3.91,0.41-6.02,2.55
		c-2.12,2.14-8.05,7.29-8.46,18.21c-0.41,10.91,7.14,21.76,8.2,23.27c1.05,1.52,14.42,25.18,36.62,34.91
		c22.22,9.73,22.34,6.77,26.41,6.55c4.08-0.22,13.32-4.88,15.37-9.98c2.04-5.11,2.21-9.55,1.69-10.49
		C152,122.75,150.54,122.14,148.37,120.95L148.37,120.95z"/>
</g>
</svg>
