<?xml version="1.0" encoding="utf-8"?>
<!-- Generator: Adobe Illustrator 25.2.1, SVG Export Plug-In . SVG Version: 6.00 Build 0)  -->
<svg version="1.1" id="Capa_1" xmlns="http://www.w3.org/2000/svg" xmlns:xlink="http://www.w3.org/1999/xlink" x="0px" y="0px"
	 viewBox="0 0 96.64 94.08" style="enable-background:new 0 0 96.64 94.08;" xml:space="preserve">
<style type="text/css">
	.st0{fill:#FFDD33;}
</style>
<path class="st0" d="M64.97,30.77H32.03c-4.61,0-8.34,3.73-8.34,8.34v16.78c0,4.61,3.73,8.34,8.34,8.34h32.95
	c4.61,0,8.34-3.73,8.34-8.34V39.11C73.31,34.5,69.58,30.77,64.97,30.77z M43.84,54.61V40.39l11.77,7.11L43.84,54.61z M92.77,47.5
	c0,24.45-19.82,44.27-44.27,44.27S4.23,71.95,4.23,47.5c0-24.45,19.82-44.27,44.27-44.27S92.77,23.05,92.77,47.5z"/>
</svg>
